<?xml version="1.0" encoding="utf-8"?>
<!-- Generator: Adobe Illustrator 24.0.2, SVG Export Plug-In . SVG Version: 6.00 Build 0)  -->
<svg version="1.1" xmlns="http://www.w3.org/2000/svg" xmlns:xlink="http://www.w3.org/1999/xlink" x="0px" y="0px"
	 viewBox="0 0 602.22 162" style="enable-background:new 0 0 602.22 162;" xml:space="preserve">
<style type="text/css">
	.st0{display:none;}
	.st1{display:inline;fill:none;stroke:#000000;stroke-width:4;stroke-linecap:round;stroke-miterlimit:10;}
	.st2{display:inline;fill:none;stroke:#000000;stroke-width:3.5;stroke-linecap:round;stroke-miterlimit:10;}
	.st3{display:inline;fill:none;stroke:#000000;stroke-width:2.5;stroke-linecap:round;stroke-miterlimit:10;}
	.st4{display:inline;fill:none;stroke:#000000;stroke-width:2;stroke-linecap:round;stroke-miterlimit:10;}
	.st5{display:inline;fill:none;stroke:#000000;stroke-linecap:round;stroke-miterlimit:10;}
	.st6{display:inline;fill:#FFFC01;stroke:#000000;stroke-width:3;stroke-miterlimit:10;}
	.st7{display:inline;}
	.st8{stroke:#FFFFFF;stroke-width:2;stroke-linecap:round;stroke-linejoin:round;stroke-miterlimit:10;}
	.st9{fill:#FFFC01;}
</style>
<g id="Bottom_Lines" class="st0">
	<line class="st1" x1="12.04" y1="177.78" x2="596.61" y2="177.78"/>
	<line class="st1" x1="5.76" y1="185.85" x2="601.43" y2="185.85"/>
	<line class="st2" x1="23.58" y1="194.67" x2="155.74" y2="194.67"/>
	<line class="st2" x1="180.7" y1="194.67" x2="224.61" y2="194.67"/>
	<line class="st2" x1="244.3" y1="194.67" x2="287.61" y2="194.67"/>
	<line class="st2" x1="309.35" y1="194.67" x2="340.43" y2="194.67"/>
	<line class="st2" x1="358.09" y1="194.67" x2="590.87" y2="194.67"/>
	<line class="st3" x1="21.61" y1="203.64" x2="157.3" y2="203.64"/>
	<line class="st3" x1="184.72" y1="203.64" x2="215.35" y2="203.64"/>
	<line class="st3" x1="261.51" y1="203.64" x2="275.48" y2="203.64"/>
	<line class="st3" x1="322.36" y1="203.64" x2="331.43" y2="203.64"/>
	<line class="st3" x1="359.87" y1="203.02" x2="394.4" y2="203.02"/>
	<line class="st3" x1="413.17" y1="203.02" x2="594.65" y2="203.02"/>
	<line class="st3" x1="28.68" y1="212.35" x2="36.91" y2="212.35"/>
	<line class="st3" x1="59.79" y1="212.35" x2="139.83" y2="212.35"/>
	<line class="st3" x1="370.63" y1="212.35" x2="386.22" y2="212.35"/>
	<line class="st3" x1="414.23" y1="212.35" x2="547.34" y2="212.35"/>
	<line class="st3" x1="576.82" y1="212.35" x2="583.53" y2="212.35"/>
	<line class="st4" x1="75.71" y1="223.3" x2="144.91" y2="223.3"/>
	<line class="st4" x1="425.25" y1="224.3" x2="484.83" y2="224.3"/>
	<line class="st4" x1="516.62" y1="224.3" x2="550.57" y2="224.3"/>
	<line class="st5" x1="76.66" y1="235.11" x2="131.28" y2="235.11"/>
</g>
<g id="Vertical_Lines" class="st0">
	<line class="st4" x1="135.2" y1="-151.43" x2="136.96" y2="-17.41"/>
	<line class="st4" x1="128.74" y1="-150.65" x2="129.72" y2="-22.7"/>
	<line class="st4" x1="143.41" y1="-155.35" x2="144.78" y2="-12.52"/>
	<line class="st4" x1="150.39" y1="-163.17" x2="151.96" y2="0.39"/>
	<line class="st4" x1="157.17" y1="-171.52" x2="159.78" y2="2.48"/>
	<line class="st4" x1="165" y1="-171.52" x2="166.3" y2="-2.74"/>
	<line class="st4" x1="171.78" y1="-180.39" x2="174.39" y2="0.39"/>
	<line class="st4" x1="179.09" y1="-187.96" x2="180.91" y2="-53.87"/>
	<line class="st4" x1="187.17" y1="-189.78" x2="187.17" y2="-67.43"/>
	<line class="st4" x1="194.22" y1="-189.78" x2="194.22" y2="-95.35"/>
	<line class="st4" x1="201.52" y1="-189.78" x2="201.52" y2="-84.42"/>
	<line class="st4" x1="208.3" y1="-199.17" x2="208.3" y2="-87.13"/>
	<line class="st4" x1="215.87" y1="-211.96" x2="216.5" y2="-114.39"/>
	<line class="st4" x1="216.6" y1="-91.04" x2="216.91" y2="-17.15"/>
	<line class="st4" x1="223.04" y1="-216.2" x2="223.04" y2="-119.54"/>
	<line class="st4" x1="224.02" y1="-101.15" x2="224.02" y2="-22.7"/>
	<line class="st4" x1="230.09" y1="-221.28" x2="230.09" y2="-123.65"/>
	<line class="st4" x1="231.07" y1="-104.87" x2="231.07" y2="-7.63"/>
	<line class="st4" x1="237.13" y1="-223.04" x2="237.13" y2="-128.93"/>
	<line class="st4" x1="238.11" y1="-110.15" x2="239.28" y2="-4.11"/>
	<line class="st4" x1="244.76" y1="-224.02" x2="245.74" y2="-138.13"/>
	<line class="st4" x1="245.25" y1="-114.65" x2="246.91" y2="-8.61"/>
	<line class="st4" x1="252.59" y1="-232.24" x2="252.59" y2="-147.72"/>
	<line class="st4" x1="252.59" y1="-126.59" x2="254.35" y2="-29.15"/>
	<line class="st4" x1="259.43" y1="-240.07" x2="259.43" y2="-149.48"/>
	<line class="st4" x1="260.41" y1="-134.8" x2="260.41" y2="-81.98"/>
	<line class="st4" x1="267.07" y1="-242.02" x2="267.85" y2="-153.98"/>
	<line class="st4" x1="267.46" y1="-136.76" x2="267.46" y2="-34.43"/>
	<line class="st4" x1="274.3" y1="-242.02" x2="274.3" y2="-159.85"/>
	<line class="st4" x1="274.5" y1="-141.85" x2="275.48" y2="-13.3"/>
	<line class="st4" x1="281.35" y1="-240.85" x2="281.35" y2="-166.3"/>
	<line class="st4" x1="281.35" y1="-145.76" x2="282.52" y2="-10.96"/>
	<line class="st4" x1="288.39" y1="-237.91" x2="288.39" y2="-169.83"/>
	<line class="st4" x1="288.39" y1="-151.63" x2="290.15" y2="18.59"/>
	<line class="st4" x1="295.43" y1="-233.61" x2="295.43" y2="-172.37"/>
	<line class="st4" x1="295.43" y1="-155.54" x2="296.8" y2="17.61"/>
	<line class="st4" x1="302.48" y1="-170.8" x2="302.48" y2="-229.3"/>
	<line class="st4" x1="302.48" y1="-153.39" x2="304.48" y2="-9.39"/>
	<line class="st4" x1="309.33" y1="-169.83" x2="309.33" y2="-224.8"/>
	<line class="st4" x1="309.33" y1="-150.65" x2="310.7" y2="-44.61"/>
	<line class="st4" x1="317.35" y1="-165.13" x2="317.35" y2="-217.76"/>
	<line class="st4" x1="317.35" y1="-147.72" x2="317.35" y2="-23.28"/>
	<line class="st4" x1="324.59" y1="-163.57" x2="324.59" y2="-209.35"/>
	<line class="st4" x1="324.59" y1="-144.39" x2="325.96" y2="-2.35"/>
	<line class="st4" x1="331.63" y1="-157.5" x2="331.63" y2="-202.99"/>
	<line class="st4" x1="331.63" y1="-139.89" x2="333.2" y2="4.5"/>
	<line class="st4" x1="339.46" y1="-153.39" x2="339.46" y2="-200.05"/>
	<line class="st4" x1="339.46" y1="-129.91" x2="340.43" y2="6.85"/>
	<line class="st4" x1="346.3" y1="-144.39" x2="346.3" y2="-193.7"/>
	<line class="st4" x1="346.3" y1="-120.91" x2="348.07" y2="-0.78"/>
	<line class="st4" x1="353.35" y1="-137.15" x2="353.35" y2="-185.48"/>
	<line class="st4" x1="353.35" y1="-119.35" x2="356.09" y2="-13.3"/>
	<line class="st4" x1="360.78" y1="-132.85" x2="360.78" y2="-173.15"/>
	<line class="st4" x1="360.78" y1="-114.46" x2="362.15" y2="-68.97"/>
	<line class="st4" x1="368.41" y1="-132.07" x2="368.41" y2="-179.22"/>
	<line class="st4" x1="375.46" y1="-125.8" x2="375.46" y2="-172.37"/>
	<line class="st4" x1="382.5" y1="-116.22" x2="382.5" y2="-157.5"/>
	<line class="st4" x1="389.54" y1="-111.91" x2="389.54" y2="-147.72"/>
	<line class="st4" x1="389.54" y1="-92.54" x2="389.54" y2="-51.26"/>
	<line class="st4" x1="396.98" y1="-99.59" x2="396.98" y2="-142.63"/>
	<line class="st4" x1="396.98" y1="-50.48" x2="396.98" y2="-84.52"/>
	<line class="st4" x1="405" y1="-89.02" x2="403.83" y2="-136.37"/>
</g>
<g id="Sun" class="st0">
	<path class="st6" d="M486.78-191.19c0-57.5-46.61-104.11-104.11-104.11c-41.14,0-76.7,23.87-93.61,58.5L435.05-101.2
		C465.99-119.25,486.78-152.79,486.78-191.19z"/>
	<line class="st4" x1="368.41" y1="-162.91" x2="368.41" y2="-179.22"/>
	<line class="st4" x1="375.46" y1="-156.39" x2="375.46" y2="-172.37"/>
	<line class="st4" x1="382.5" y1="-150.13" x2="382.5" y2="-157.5"/>
</g>
<g id="Trees" class="st0">
	<path class="st7" d="M-2.71,171.39c-0.98-0.64-1.06-1.98-0.91-3.13c0.17-1.34,1.26-1.78,1.25-2.74c-0.04-2.18-2.65-1.95-2.65-1.95
		s-5.37,0.1-6.13-0.2c-1.5-0.59-1.77-4.42-1.53-5.97c0.33-2.09,5.37-1.61,5.25-2.64c-0.12-0.98-4.78-1.17-5.28-1.17
		c-3.65,0-17.05,0.35-17.41,0c-0.91-0.87-0.14-1.89-1.01-3.65c-1.06-2.14-3.47-2.24-3.1-3.78c0.24-1,1.58-2.3,2.61-2.87
		c1.13-0.62,3.35-0.51,3.91-0.49c4.6,0.13,10.5,0.23,10.5,0.23c1.11-1.04,0.81-2.99,0.82-4.47c0-1.53,0.38-2.33-0.65-2.97
		c-0.83-0.52-15.72,0.36-16.6-0.39c-1.18-1-1.83-2.42-1.91-4.11c-0.05-1.03-0.14-2.73,0.54-3.52c1.7-1.98,6.91-0.62,7.43-1.17
		c1.56-1.66,0-6.03,0.78-6.85c1.27-1.32,3.65-1.38,6.07-1.37c2.96,0.01,4.86,0.36,5.48-0.2c0.73-0.65,0.88-2.09,0.78-2.74
		c-0.35-2.21-0.91-2.41-5.48-2.54c-2.76-0.08-4.6,0.2-5.28-0.39c-0.57-0.49-1.01-1.31-0.98-2.15c0.04-1.19,0.96-2,1.17-2.15
		c0.75-0.52,5.48-0.68,7.24-0.59c4.32,0.23,4.94,0.12,5.48-0.39c1.3-1.23,1.09-3.88,0.98-5.28c-0.17-2.16-0.44-3.37-0.2-3.91
		c0.33-0.74,1.48-0.43,2.93-0.39c4.63,0.14,8.44,0.14,9.2-0.39c0.99-0.7,1.93-2.1,1.57-2.93C1.9,93.54-0.88,93.75-8.8,93.72
		c-5.82-0.02-8.87,0.29-9.59-0.59c-0.73-0.89-1.15-2.35-0.59-3.13c1.15-1.61,6.12-0.17,7.43-0.78c1.67-0.78,1.01-3.83-0.07-5.54
		c-0.19-0.31-0.63-1.57-3.91-2.05c-2.19-0.33-8.27,0.69-14.61-0.42c-2.21-0.39-2.55-0.8-2.54-0.98c0.03-0.6,3.65-0.42,5.02-2.12
		c0.99-1.23,0.63-3.55-0.72-4.73c-2.05-1.79-6.41-0.36-6.65-1.17c-0.18-0.59,0.36-2.35,3.63-2.55c3.16-0.2,5.43,0.41,6.74-0.77
		c0.99-0.89,0.68-2.55-0.07-3.26c-0.75-0.72-5.35,0.29-6.13-0.42c-0.77-0.71-0.54-2.18,0.13-3.16c1.43-2.09,6.55-1.47,7.76-2.38
		c1.59-1.2,1.16-2.48,2.8-3.49c1.36-0.83,2.41,0.74,5.98-1.57c3.59-2.32,6.08-0.64,6.28-2.41c0.26-2.32-3.43-6.41-5.02-7.17
		c-2.16-1.04-3.16,0.66-7.37,0.62c-3.75-0.04-7.89-0.88-7.89-1.4c0-1.27,4.55-1.73,9-5.28c2.56-2.04,7.47-6.49,6.46-9
		c-1.45-3.58-14.77-2.45-14.67-3.52c0.1-1.07,1.32-2.58,4.5-5.67c2.17-2.11,2.73-2.69,3.26-4.34c0.67-2.08,0.01-2.71,0.65-4.47
		C-17.9,9-13.8,8.59-13.6,6.75c0.25-2.32-6.59-3.62-5.58-4.79c0.25-0.29,4.03,0.37,5.43-0.06c0.97-0.3,0.96-1.29,0.64-2.1
		c-0.61-1.53-4.44-1.07-4.5-1.76c-0.05-0.51,2.38-1.37,3.52-2.15c1.53-1.05,0.96-2.98,1.76-3.13c0.9-0.17,1.34,1.3,3.55,0.98
		c0.96-0.14-0.29-3,0.55-3.91c1.13-1.21,2.47-0.03,5.28-1.17c1.05-0.43,2.25-0.91,2.93-2.15c0.71-1.29,0.76-3.23-0.2-4.3
		c-0.83-0.94-2.25-0.77-7.04-0.39c-5.4,0.43-8.28,1.21-8.41,0.78c-0.17-0.53,2.38-1.74,6.39-4.61c1.49-1.07,4.15-4.31,3.59-6.35
		c-2.05-7.47-6.68-5.41-6.98-6.33c-0.36-1.12,3.85-1.37,4.83-3.52c1.03-2.27-0.33-4.5,0.59-5.8c0.18-0.26,1.96-1.11,6.46-3.91
		c5.29-3.29,6.4-1.76,6.26-3.72c-0.07-0.91-0.4-0.54-6.46-0.78c-3.81-0.15-5.9-0.11-6.07-0.78c-0.15-0.59,1.4-0.97,2.35-2.93
		c0.6-1.24,0.16-1.84,0.78-2.15c0.64-0.32,3.38,0.37,6.33,0.13c1.86-0.15,4.09-1.38,5.02-3.2c0.65-1.27,0.32-4.56-0.78-5.15
		c-1.01-0.54-6.27,0.88-6.36-0.2c-0.03-0.36,2.27,0.34,4.57-5.64c0.85-2.22,6.75-6.54,7.27-9.23c0.08-0.4,0.89-2.14-0.26-2.97
		c-1.22-0.87-3.93-0.13-4.04-0.36c-0.13-0.27,3.5-1.68,5.48-3.91c1.77-2,1.24-5.97,1.37-13.3c-0.03,1.53,1.16,3.52,2.74,5.48
		c2.39,2.98,5.46,4.65,5.15,5.54c-0.3,0.87-3.33-0.85-4.57,0.72c-0.85,1.08,0.1,3.42,0.85,7.17c0.53,2.63,2.8,5.15,5.02,7.89
		c2.49,3.07,5.11,2.39,6.52,4.27c0.42,0.56,0.36,3.03-0.26,3.36c-0.76,0.4-1.41-0.7-3.72-1.57c-1.29-0.48-3.29-1.23-4.3-0.39
		c-0.97,0.8-0.88,2.27-0.23,3.52c0.36,0.68,6.09,5.02,8.41,4.96c1.78-0.05,2.8-2.71,3.75-2.8c0.8-0.08,0.44,1.68,1.76,2.93
		c0.21,0.2,1.54,1.03,2.48,1.04c1.33,0.02,1.77-1.46,3.29-3.29c3.22-3.86,5.45-3.83,6.16-6.75c0.16-0.66,0.71-2.2-0.2-2.74
		c-1.6-0.95-4.83-1.3-5.28-2.05c-0.43-0.71-0.78-1.24,0-1.6c1.11-0.51,2.09-1.18,2.15-1.63c0.2-1.53-2.42-0.36-2.93-1.76
		c-0.42-1.14,0.92-3.82-0.03-4.27c-3.55-1.66-8.15,2.35-8.77,1.73c-0.77-0.78,0.32-3.08,1.57-4.63c1.13-1.41,2.25-1.37,2.28-2.87
		c0.04-1.7-1.85-1.41-1.72-2.1c0.13-0.66,2.01-0.73,3.97-1.41c3.36-1.15,4.93-2.7,8.77-4.25c1.65-0.67,2.39-0.41,3.52-1.17
		c1.71-1.14,1.7-2.32,2.93-3.91c2.75-3.53,6.31-2.26,8.02-5.48c0.77-1.46,0.93-3.38,0.2-3.91c-0.89-0.65-2.29,1.35-4.5,1.17
		c-2.99-0.24-2.45-4.08-5.87-3.91c-1.99,0.09-2.32,4.66-3.45,4.64c-1.64-0.03-0.61-3.59,1.16-5.39c1.35-1.38,2.45-1.27,5.38-2.67
		c0.75-0.36,3.9-1.29,3.75-3.23c-0.16-2.12-2.6-4.03-4.43-4.7c-1.06-0.39-2.39,0.2-3.33,0.68c-1.27,0.65-2.42,1.47-4.96,4.01
		c-2.78,2.78-2.97,3.02-3.13,2.93c-0.45-0.24-0.08-2.37,0.98-4.11c1.08-1.79,1.84-1.32,3.6-3.38c0.47-0.55,0.52-0.88,2.86-4.64
		c2.11-3.38,2.42-3.8,3.13-4.11c1.66-0.73,2.56,0.42,4.11-0.39c1.81-0.94,1.75-3.11,2.74-3.13c1.23-0.03,1.57,2.84,3.33,3.72
		c1.28,0.64,2.88-1.21,3.52-2.15c0.26-0.38,1.41-2.09,0.78-3.33c-0.87-1.7-5.22-1.79-5.02-2.93c0.16-0.94,2.35-2.16,3.55-3.49
		c0.65-0.72,0.13-2.4-0.88-3.55c-0.68-0.78-4.54-0.4-7.08,0.91c-3.72,1.92-0.8,3.35-2.32,4.37c-1.76,1.18-3.02,0.27-6.65,0.39
		c-2.87,0.1-2.05,1.24-3.72,0.98c-1.37-0.22-2.85-1.33-2.93-2.54c-0.07-1.02,0.74-1.22,2.22-3c1.64-1.97,0.29-2.59,1.24-3.33
		c1.6-1.25,3.96,0.07,6.26-0.91c1.87-0.8,2.05-3.33,3.39-6.46c1.67-3.9,0.66-5.72,1.96-6.46c1.59-0.9,3.09,0.6,5.64-0.23
		c1.99-0.65,3.52-2.18,3.16-2.9c-0.6-1.22-6.36,0.48-6.56-0.15c-0.12-0.39,2.73-1.43,5.12-3.08c0.82-0.56,2.94-3.46,2.41-4.53
		c-0.52-1.05-4.17,0.28-6.75,1.11c-3.64,1.17-5.18,2.51-6.55,1.96c-1.2-0.49-2.05-1.98-1.96-3.33c0.11-1.54,1.3-2.26,1.66-2.48
		c1.96-1.17,4.42-0.82,7.63-1.57c3.2-0.74,2.3-2.07,6.55-3.98c3.76-1.68,5.1-0.78,7.43-2.74c0.77-0.65,2.62-2.2,2.74-4.7
		c0.08-1.72-0.76-3.8-2.45-4.7c-2.64-1.4-7.74,0.85-8.12,0.59c-0.52-0.36-0.62-2.09-0.07-2.51c0.44-0.33,5.22-0.06,6.52-0.62
		c1.36-0.58,1.23-1.56,2.8-3.59c1.72-2.21,3.05-2.89,3.16-4.08c0.18-1.92-4.19-2.77-3.91-4.4c0.21-1.22,2.57-1.76,3.62-2.02
		c2.21-0.56,2.57-0.39,3.36-1.11c1.2-1.1,1.07-3.62-0.2-4.86c-1.67-1.64-4.41,0.19-4.74-0.69c-0.24-0.64,1.65-1.39,3.37-4.01
		c0.75-1.13,1.63-2.35,1.24-2.9c-0.64-0.89-5.67,0.36-7.17,2.02c-1.94,2.16-2.07,4.7-3.65,5.35c-1.28,0.53-2.32-0.47-3.2-1.5
		c-0.12-0.14-0.79-1.18-0.23-2.28c0.48-0.95,1.9-1.11,3.98-1.76c2.91-0.91,7.95-4.89,10.37-6.39c0.95-0.59,0.07-2.51,0.85-2.8
		c1.46-0.55,3.25,0.1,3.46-0.39c1.24-2.9-3.07-3.27-3.01-4.21c0.07-1.03,1.41-1.15,2.22-2.44c1.29-2.04,0.42-5.71,0.52-6.68
		c0.09-0.9,0.38-0.77,1.24-1.92c0.85-1.14,1.2-2.32,1.37-3.13c0.51,0.8,1.31,1.93,2.45,3.13c1.58,1.66,2.37,1.94,2.45,2.84
		c0.13,1.62-2.34,2.19-2.35,4.01c-0.01,1.33,1.3,1.46,1.96,3.42c0.68,2.04-0.45,2.75,0.1,4.4c0.48,1.44,1.57,1.62,5.28,4.11
		c1.96,1.32,5.25,3.54,4.89,4.4c-0.14,0.35-0.77,0.19-2.74,0.78c-1.14,0.34-1.71,0.52-1.96,0.88c-0.44,0.65-0.11,1.7,1.17,4.01
		c1.91,3.43,2.86,5.14,4.11,5.87c2.37,1.38,3.56-0.11,6.16,0.98c4.14,1.74,5.58,7.38,5.18,7.63c-0.34,0.22-2.28-3.45-4.01-3.03
		c-1.54,0.37-1.32,3.61-2.93,4.01c-1.67,0.42-3.2-2.72-4.4-2.25c-0.99,0.39-1.07,2.94-0.59,4.79c0.93,3.59,4.16,5.35,4.6,5.58
		c2.25,1.18,3.52,0.69,6.75,1.08c5.92,0.72,11.69,3.6,11.54,5.48c-0.12,1.46-3.75,1.74-3.82,3.52c-0.05,1.32,1.93,1.79,2.15,3.91
		c0.12,1.11-0.39,1.38-0.1,2.35c0.3,0.99,1.08,1.56,2.35,2.45c1.89,1.32,2.76,1.3,3.23,2.35c0.33,0.74,0.35,1.76-0.1,2.05
		c-0.54,0.35-1.59-0.46-1.76-0.59c-1.23-0.95-1.03-1.87-1.86-2.84c-1.19-1.4-2.45-0.48-5.28-1.86c-2.22-1.08-2.29-2.06-3.52-2.05
		c-2.09,0.01-4.37,2.85-3.91,4.79c0.25,1.06,1.15,1.19,2.84,2.74c2.41,2.21,2,3.26,3.52,4.6c3.43,3.02,8.61,0.39,9.68,2.54
		c0.6,1.2-0.98,2.05-0.98,4.89c0,3.03,1.79,5.08,1.47,5.28c-0.31,0.2-1.65-1.78-4.4-4.3c-1.93-1.77-2.92-2.66-4.11-2.93
		c-2.32-0.53-3.79,0.8-4.99-0.2c-0.95-0.8-0.49-2.04-1.47-2.54c-0.91-0.47-2.42,0.03-2.74,0.88c-0.3,0.8,0.5,1.76,1.47,2.84
		c3.19,3.56,4.78,5.34,7.04,6.95c1.72,1.22,3.74,2.65,6.75,3.91c2.75,1.15,5.32,1.75,5.28,2.64c-0.01,0.27-0.26,0.54-0.98,0.88
		c-3.77,1.77-7.29-1.02-9.1,0.59c-1.09,0.97-1.12,3.16-0.29,4.01c0.77,0.8,1.85-0.03,3.42,0.68c1.82,0.83,1.34,2.4,3.03,3.42
		c2.03,1.23,3.54-0.53,5.87,0.68c1.85,0.97,1.72,2.51,3.13,2.74c2,0.32,3.29-2.61,4.5-2.15c1.43,0.54,0.75,5.05,0.68,5.48
		c-0.2,1.3-0.57,3.64-1.96,4.11c-0.91,0.31-1.37-0.5-2.45-0.29c-1.45,0.27-3.08,2.19-2.74,4.3c0.34,2.09,2.43,3.24,3.91,3.23
		c1.38-0.01,1.74-1.02,2.74-0.78c1.59,0.38,1.4,3.11,3.03,3.62c1.39,0.43,2.43-1.27,3.33-0.78c1.01,0.56-0.11,2.88,0.88,6.26
		c0.41,1.4,0.82,2.82,2.05,3.52c1.84,1.05,4.14-0.27,4.6,0.59c0.23,0.43-0.13,1.17-0.59,1.57c-1.02,0.87-2.24-0.21-3.72,0.49
		c-1.41,0.67-1.37,2.15-2.25,2.15c-0.56,0-0.75-0.61-2.45-2.45c-1.24-1.35-1.53-1.44-1.76-1.47c-1.25-0.13-1.84,1.74-2.74,1.57
		c-0.97-0.19-0.56-2.41-2.35-4.3c-0.41-0.43-1.39-1.47-2.54-1.37c-1.38,0.13-1.73,1.78-2.64,1.66c-1.11-0.14-0.83-2.64-2.74-3.82
		c-0.1-0.06-1.62-0.97-3.13-0.29c-0.14,0.06-1.24,0.57-1.57,1.66c-0.51,1.7,1.15,3.94,3.03,4.6c1.62,0.57,2.52-0.34,3.42,0.39
		c1.03,0.83,0.13,2.25,0.98,4.4c0.8,2.03,2.82,3.87,4.4,3.62c1.34-0.22,1.82-1.85,2.35-1.66c0.71,0.26-0.39,3.17,0.59,6.75
		c0.31,1.15,0.89,3.29,2.25,3.62c1.52,0.37,2.59-1.88,4.21-1.47c1.22,0.31,0.99,1.68,2.45,2.45c1.85,0.97,3.41-0.62,4.79,0.39
		c1.14,0.83,1.39,2.83,0.78,3.33c-0.55,0.45-1.42-0.65-3.33-0.68c-0.22,0-2.68-0.03-3.72,1.47c-1.08,1.55,0.11,3.69-0.68,4.11
		c-0.64,0.34-1.46-1.06-2.64-0.88c-1.27,0.2-2.4,2.13-2.45,3.91c-0.07,2.37,1.8,3,1.57,5.09c-0.21,1.86-1.92,3.53-2.93,3.33
		c-0.86-0.17-0.71-1.6-2.35-3.03c-0.62-0.54-1.33-1.16-2.15-1.08c-1.55,0.16-1.98,2.65-2.93,2.54c-0.87-0.1-0.67-2.17-2.25-3.23
		c-0.99-0.66-2.55-0.83-3.33-0.1c-0.78,0.73-0.49,2.07-0.2,3.42c0.27,1.28,0.58,2.72,1.66,3.23c1.16,0.55,2-0.56,3.13,0
		c0.79,0.39,0.66,1.07,1.66,2.84c0.92,1.61,1.59,2.8,2.74,3.13c1.5,0.44,2.32-1,3.62-0.49c1.29,0.51,0.84,2.07,2.25,3.03
		c1.78,1.21,4.03-0.25,4.7,0.78c0.38,0.59,0.07,1.71-0.59,2.15c-1.09,0.74-2.43-0.87-3.91-0.29c-1.48,0.57-1.92,2.86-1.96,4.01
		c-0.01,0.21-0.06,2.82,1.96,4.5c0.2,0.16,1.42,1.16,3.13,1.27c1.04,0.07,1.28-0.25,1.86,0c1.3,0.55,0.75,2.4,1.96,3.23
		c1.49,1.02,4.07-0.15,4.89,0.2c0.57,0.24,0.3,1.59,0.1,2.1c-0.25,0.64-0.68,0.25-2.94,0.93c-2.58,0.77-2.94,1.14-3.13,1.47
		c-0.46,0.8-0.29,1.96,0.29,2.74c0.76,1.01,1.97,1.06,2.35,1.08c1.56,0.06,2.63-0.97,2.74-1.08c1.44-1.42,0.85-3.32,1.76-3.62
		c0.83-0.27,1.4,1.27,3.03,1.47c1.14,0.14,2.52-0.41,3.23-1.37c1.46-1.98-0.35-5.08,0.68-5.67c0.59-0.34,1.17,0.65,2.54,0.59
		c1.52-0.07,2.75-1.38,3.33-2.45c0.1-0.19,1.43-2.75,0-4.6c-0.65-0.84-2.22-0.99-3.2-0.62c-0.99,0.37-1.37,0.91-2.09,2.67
		c-0.36,0.89-1.71,1.99-1.96,1.27c-0.46-1.34-2.01-1.12-2.05-2.15c-0.04-0.96,0.84-0.77,1.73-2.25c0.81-1.35,0.96-3.06,1.21-4.5
		c0.48-2.8,0.01-4.67,0.49-4.79c0.4-0.11,0.66,1.21,2.05,1.96c0.28,0.15,1.1,0.52,2.18-0.03c1.19-0.6,1.39-1.76,2.61-2.32
		c0.31-0.14,0.33-0.04,2.05-0.1c2.07-0.07,2.31-0.23,2.45-0.39c0.5-0.6,0.16-1.53-0.52-1.96c-0.58-0.36-0.94-0.18-2.41-0.1
		c-0.51,0.03-1.97,0.09-3.13-0.78c-0.75-0.57-1.46-1.6-1.17-2.15c0.23-0.44,0.87-0.17,1.47-0.68c0.79-0.68,0.94-2.27,0.29-2.93
		c-0.23-0.24-0.53-0.32-2.25-0.29c-2.55,0.04-3.1,0.24-3.62-0.2c-0.66-0.55-0.86-1.79-0.39-2.35c0.54-0.64,1.52,0.14,3.23-0.2
		c2.2-0.44,2.48-2.12,4.11-2.05c1.49,0.06,0.82,1.5,3.03,1.37c1.79-0.11,2.84-3.24,2.93-3.52c0.81-2.45-0.45-2.96,0.1-6.36
		c0.12-0.75,0.57-1.23,0.03-2.05c-0.4-0.61-1.23-1.31-1.2-1.76c0.03-0.44,0.62-0.57,1.08-0.98c1.16-1.04,0.78-3.44,0-5.38
		c-0.16-0.41-1.19-1.74-2.54-1.76c-1.81-0.03-2.71,2.39-3.52,2.05c-0.72-0.3-0.47-2.41-0.29-3.82c0.17-1.38,0.4-1.7,0.59-1.66
		c0.52,0.09,1.28,1.32,2.38,0.85c3.98-1.7,3.26-5.28,4.66-6.03c0.86-0.46,1.93,1.92,2.77,1.73c0.77-0.17,0.64-2.09,1.43-3.78
		c0.51-1.1,0.96-0.86,1.37-1.66c0.21-0.41,1.1-2.13,0.2-3.62c-0.5-0.82-1.5-1.51-2.54-1.47c-1.79,0.08-2.46,2.3-3.33,2.05
		c-1.13-0.32-1.32-4.51-0.29-4.89c0.64-0.24,1.17,1.24,2.54,1.27c1.3,0.03,2.33-1.26,3.13-2.25c0.69-0.86,1.3-1.62,1.47-2.74
		c0.26-1.77-0.9-2.31-0.59-4.01c0.02-0.12,0.37-1.9,1.66-2.45c1.19-0.51,2.03,0.52,2.84,0c0.94-0.6,0.84-2.65,0.39-4.01
		c-0.47-1.43-1.09-1.38-1.17-2.35c-0.09-1.08,0.78-3.1,2.84-4.4c1.94-1.23,1.75-1.7,1.86-1.66c0.56,0.19,0.4,1.89,0,7.34
		c-0.37,5.1-0.45,6.54,0.59,7.73c0.91,1.05,1.74,1.61,1.83,2.58c0.1,1.16-1.18,1.15-1.34,2.71c-0.12,1.16,0.61,2.59,1.57,2.84
		c1.45,0.38,2.71-2.11,3.82-1.66c0.24,0.1,0.37,0.29,1.08,3.03c0.58,2.28,0.61,2.6,0.49,3.03c-0.31,1.15-1.63,0.99-1.66,2.25
		c-0.03,1.37,0.43,3.89,0.82,4.3c1.43,1.55,1.96,2.67,3.46,3.91c1.23,1.02,1.86-1.41,3.26-0.88c0.85,0.33,1.39,1.06,2.05,1.96
		c0.59,0.8,0.89,1.21,0.78,1.66c-0.19,0.75-1.28,0.59-2.35,1.66c-0.17,0.17-1.02,1.03-1.08,2.15c-0.02,0.31,0.01,1.02,1.66,3.03
		c1.54,1.88,2.32,2.82,3.33,3.03c1.63,0.35,2.58-0.89,3.42-0.29c0.36,0.25,0.51,0.7,0.59,3.33c0.1,3.44-0.12,3.53,0.2,4.21
		c0.6,1.29,1.93,2.06,3.62,3.03c1.25,0.72,1.59,0.69,2.05,1.27c1.1,1.37,0.97,3.77,0.1,4.21c-0.79,0.4-1.54-1.15-3.23-1.08
		c-1.69,0.08-2.17,1.68-3.42,1.47c-1.26-0.21-2.07-1.82-3.49-1.97c-1.25-0.13-2.71,0.63-3.19,2.81c-0.34,1.52,0.56,2.4,1.76,2.87
		c1.54,0.61,2.31-0.83,3.75-0.2c1.06,0.47,0.55,1.67,2.05,3.52c0.26,0.32,2.06,2.55,4.11,2.35c0.82-0.08,1.04-0.48,1.47-0.29
		c0.97,0.43-0.01,2.63,1.17,4.6c0.69,1.15,2.04,2.11,3.42,2.35c1.46,0.25,2.21-0.41,3.03,0.2c0.73,0.53,0.38,1.21,1.17,2.25
		c0.59,0.76,1.57,1.43,2.74,1.57c1.3,0.15,2.75-0.37,3.52-1.37c0.56-0.72,0.5-1.35,1.08-1.57c0.65-0.24,1.04,0.44,1.86,0.49
		c1.84,0.11,3.44-3.16,3.52-3.33c1.05-2.19,0.5-3.46,1.47-4.01c1.02-0.58,1.91,0.68,3.52,0.29c1.68-0.4,3.3-2.38,2.84-3.91
		c-0.25-0.82-1.1-1.56-2.05-1.66c-2-0.21-3.72,2.14-4.21,2.15c-0.81,0.03-0.76-1.87-0.78-4.7c-0.01-2.03,0.23-2.53,0.59-2.74
		c0.72-0.43,1.88,0.23,2.69-0.08c1.39-0.54,1.02-4.25,2.01-5.89c0.49-0.81,0.81-0.41,1.37-0.98c2.89-2.93-1.23-10.06,0.98-11.64
		c1.02-0.73,2.71,0.27,3.03-0.49c1.3-3.07-0.65-2.23-0.78-3.72c-0.07-0.78,1.09-0.31,1.17-2.15c0.13-2.93,0.77-1.74,2.02-2.8
		c1.29-1.09,0.63-2.69,0.82-2.67c0.44,0.05,0.3,3.13,0.78,7.83c0.46,4.49,0.95,5.17,1.47,5.58c1.71,1.34,4.09,1.18,5.41,1.92
		c1.46,0.81,1.07,2.91,0.07,3.75c-0.96,0.8-2.3-0.36-3.52,0.49c-1.1,0.77-0.72,3.39,0,4.24c0.89,1.05,2.23-0.28,3.52,0.85
		c1.15,1,0.08,1.73,0.98,3.23c2.09,3.49,6.08,1.96,6.55,2.45c0.69,0.71,0.18,2.21-0.49,2.64c-0.94,0.61-2.55-0.63-3.91-0.08
		c-1.02,0.41-1.23,1.52-1.17,2.62c0.1,1.79,1.97,3.04,3.42,3.33c1.43,0.28,1.92-0.49,3.03,0c1.25,0.55,1.06,2.25,2.35,3.03
		c1.51,0.92,2.66-0.67,3.52,0.2c0.82,0.82,0.92,3.01-0.2,3.72c-0.71,0.45-4.84,0.01-6.07-0.39c-1.94-0.63-2.33-1.97-3.72-1.86
		c-0.95,0.07-2.05,0.67-2.25,1.57c-0.23,1.03,0.82,2.14,1.76,2.64c1.7,0.91,3.39,0,3.82,0.78c0.22,0.41-0.02,1.06-0.39,1.37
		c-0.51,0.42-1.08,0.03-2.45,0.1c-0.87,0.04-1.89,0.09-2.25,0.68c-0.42,0.69,0.06,2.07,0.98,2.64c1.34,0.83,2.78-0.62,3.91,0.2
		c0.55,0.39,0.37,0.84,1.08,2.93c0.64,1.89,0.96,2.84,1.57,3.23c1.42,0.91,3.03,0.25,4.47,1.17c0.78,0.51,0.28,0.58,1.5,2.35
		c0.77,1.11,1.44,1.45,2.45,1.76c0.75,0.23,2.04-0.49,3.62-0.98c0.91-0.28,1.02-0.04,2.74-0.78c2.2-0.95,3.3-1.42,3.42-1.57
		c1.68-1.91,0.04-5.55,0.88-5.87c0.56-0.21,1.17,1.45,2.35,1.47c1.82,0.03,3.27-3.84,3.33-4.01c1.2-3.3,0.33-5.88,1.47-6.36
		c0.75-0.31,1.3,0.72,2.45,0.49c1.39-0.29,2.62-2.24,2.35-3.82c-0.26-1.55-1.79-1.69-1.86-3.03c-0.06-1.2,0.75-1.96,2.15-3.52
		c0.32-0.35,0.92-2.05,0.78-4.01c-0.11-1.51-0.36-1.66-1.02-3.88c-0.47-1.57-0.68-3.58-0.75-5.61c-0.04-1.13,1.49-3.36,2.15-3.23
		c0.38,0.08,0.44,0.73,0.98,3.23c0.66,3.08,0.99,4.04,1.37,4.89c0.61,1.34,1.17,2.58,2.15,2.74c1.33,0.22,2.37-1.68,2.93-1.37
		c0.61,0.34-0.25,2.33,0.42,4.76c0.38,1.39,2.09,3.2,3.52,4.11c1.94,1.23,2.76-1.61,3.68-0.85c1.41,1.16-1.58,6.17,0.1,7.53
		c0.64,0.52,1.56,0.2,2.45,1.17c0.19,0.21,0.04,0.76-0.03,1.4c-0.09,0.83-0.95,1.43-1.62,1.15c-0.29-0.12-0.27-0.96-1.57-2.56
		c-0.72-0.88-1.55-1.9-2.74-1.96c-1.14-0.06-2.26,0.78-2.74,1.76c-0.79,1.62,0.3,3.39,0.98,4.5c0.6,0.98,1.22,1.91,2.15,2.05
		c2.54,0.39,2.57-2.26,3.23-1.96c0.51,0.23-0.26,1.59,0.39,3.33c0.56,1.5,1.1,2.14,1.08,3.33c-0.01,0.67,0.13,1.11-0.49,1.37
		c-0.82,0.34-1.64-0.73-2.71-1.5c-1.37-0.98-1.72-1.2-2.38-1.24c-1.05-0.06-2.3,1.22-2.45,2.54c-0.21,1.93,1.95,3.74,3.62,3.72
		c1.26-0.02,1.72-1.08,2.54-0.78c1,0.36,0.54,1.99,1.96,3.52c0.14,0.15,1.04,1.14,2.58,2.09c0.76,0.47,1.68,0.58,2.9,1.53
		c0.82,0.64,1.09,0.93,1.27,1.37c0.34,0.85,0.23,2.01-0.29,2.25c-0.25,0.12-0.13-0.16-1.79-1.11c-1.39-0.8-1.87-0.74-2.12-0.75
		c-1.13-0.07-2.18,1.14-2.64,2.05c-0.08,0.15-1.2,2.45,0.2,4.21c1.04,1.31,2.84,1.49,4.01,1.17c1.7-0.45,2.38-2,2.84-1.76
		c0.49,0.26-0.51,1.88-0.1,4.21c0.31,1.73,1.23,2.93,1.76,3.62c0.78,1.01,1.39,1.01,2.18,1.14c1.19,0.19,1.65-0.29,2.61,0.03
		c0.84,0.29,0.66,1.23,1.66,1.76c0.99,0.53,2.15,0.14,2.54,0c1.63-0.56,1.6-1.49,1.79-1.86c0.21-0.4,1.05-2.74,0.26-4.63
		c-0.6-1.44-1.15-2.28-2.45-2.51c-1.57-0.28-3.36,0.49-3.82,0.68c-0.83,0.36-1.2,0.67-1.47,0.49c-0.35-0.23-0.14-1.01,0.49-3.52
		c0.74-2.98,0.86-3.53,1.37-3.72c0.84-0.3,1.54,1.32,3.07,1.4c1.72,0.09,2.95-1.73,3.29-2.09c1.08-1.11,0.07-1.63,0.96-1.94
		c0.93-0.32,2.05,0.54,3.11,0.37c1.27-0.2,3.09-2.08,2.87-3.91c-0.18-1.52-1.54-2.75-2.74-2.74c-1.54,0.01-1.95,2.08-3.42,2.05
		c-1.55-0.02-2.02-2.34-3.23-2.25c-1.74,0.13-2.21,5.08-3.82,5.09c-0.48,0-0.16-0.8-1.92-2.02c-0.87-0.6-0.99-0.74-1.7-0.98
		c-1.48-0.5-3.27,0.01-3.33-0.23c-0.07-0.31,1.89-0.49,3.42-1.86c2.11-1.89,1.73-4.56,3.03-4.79c1.01-0.18,2.12,1.13,3.31,1.12
		c2.06-0.02,1.97-4.47,4.42-4.64c0.98-0.07,1.29,0.65,2.35,0.39c1.21-0.3,1.88-1.51,2.35-2.35c0.54-0.98,1.12-2.01,0.88-3.33
		c-0.24-1.36-1.32-2.86-2.64-3.03c-1.45-0.18-1.96,1.4-3.52,1.27c-1.6-0.13-1.82-1.84-3.13-1.86c-1.79-0.03-2.31,3.13-4.47,2.8
		c-1.4-0.21-3.16-0.5-3.16-1.53c0-0.99,1.8-0.71,2.97-2.45c1.33-1.98,0.39-4.27,1.34-4.6c0.88-0.31,1.85,0.97,3.16,0.88
		c1.63-0.11,2.46-2.41,2.71-3.03c1.78-4.53-0.1-8.7,1.08-9.2c0.77-0.33,1.59,1.45,3.13,1.27c1.4-0.16,2.76-1.84,2.64-3.33
		c-0.03-0.4-0.87-1.32-2.54-3.13c-0.9-0.97-1.37-1.46-2.05-1.47c-0.77-0.01-1.05,0.61-1.47,0.49c-1.18-0.33-0.97-5.73-0.1-5.87
		c0.53-0.09,0.88,1.77,1.86,1.86c1.86,0.16,0.96-1.52,2.05-3.16c1.17-1.76,1.43-1.51,2.05-1.73c0.91-0.32,1.63,0.12,3.1,0.23
		c1.17,0.09,2.35-0.68,3.26-1.57c0.89-0.86,0.81-1.32,1.17-4.43c0.31-2.67,0.24-4.04-0.39-4.89c-1.21-1.63-3.8-1.26-3.62-2.25
		c0.06-0.32,1.54-0.97,3.1-2.9c1.63-2.02,0.32-6.82,1.01-6.98c0.64-0.15,1.2,4.19,2.93,3.82c1.05-0.22,2.3-3,4.01-5.45
		c0.71-1.01,1.39-2.37,1.08-3.16c-0.36-0.93-1.23-1.24-2.18-1.34c-1.42-0.15-3.17,0.62-3.2,0.59c-0.03-0.04,2.48-1.27,4.4-3.07
		c1.16-1.08,1.69-1.78,2.05-2.35c0.6-0.94,1.63-2.53,1.08-3.42c-0.51-0.83-1.88-0.22-2.64-1.17c-0.72-0.9-0.43-2.6,0.2-2.84
		c0.62-0.24,1.75,1.19,3,1.3c1.72,0.16,2.19-2.35,3.07-1.99c0.43,0.17,0.4,0.86,0.59,2.64c0.42,4.04,0.91,4.08,0.59,5.28
		c-0.53,1.94-1.85,1.91-2.05,3.72c-0.14,1.22,0.32,2.53,1.17,3.42c1.18,1.22,2.81,1.33,3.42,1.37c2.01,0.13,2.64-0.25,3.65,0.36
		c0.74,0.44,1.42,0.95,1.14,1.6c-0.38,0.88-2.39,0.09-3.82,1.4c-0.29,0.27-0.43,1.11-0.49,1.92c-0.05,0.71,0.38,0.95,0.68,1.96
		c0.36,1.21-0.04,1.56,0.2,2.54c0.12,0.51,0.36,0.96,2.05,2.64c2.47,2.46,2.87,2.42,3.23,3.33c0.59,1.48-0.28,2.04,0.2,3.52
		c0.33,1.03,1.08,1.78,4.01,3.52c4.41,2.62,6.35,3.09,6.26,3.82c-0.09,0.74-2.69,1.35-4.56,0.95c-2-0.42-1.88-1.71-4.05-2.03
		c-0.46-0.07-2.27-0.34-3.03,0.68c-0.7,0.94-0.27,2.68,0.68,3.52c0.28,0.25,0.64,0.44,4.4,0.88c1.55,0.18,2.08,0.52,2.54,0.85
		c0.83,0.6,0.72,1.89,3.07,1.76c2.94-0.16,4.32-1.46,5.05-2.02c2.17-1.65,2.97-3.67,3.13-4.11c0.37-1.05,0.81-2.28,0.29-3.52
		c-0.66-1.58-2.5-2.25-3.33-2.54c-1.85-0.67-2.58-0.15-3.52-0.98c-0.81-0.71-1.37-2.06-0.88-2.93c0.51-0.92,1.96-1.05,2.45-0.98
		c1.48,0.21,1.37,1.24,3.62,0.78c1.13-0.23,2.05-2.35,2.17-4.59c0.12-2.31,0.43-4.17-0.02-5.88c-0.19-0.72-0.9-1.91-2.05-2.25
		c-1.45-0.43-2.94,0.59-3.52,0.49c-1.01-0.17-1.4-1.14-1.96-3.52c-0.59-2.51-2.02-1.99-2.25-2.84c-0.46-1.72-0.34-3.25,0-4.7
		c0.6-2.59,1.84-4.23,2.45-4.99c0.88-1.11,1.47-1.46,1.66-1.57c1.42-0.8,2.21-0.21,3.13-0.68c2.77-1.43,0.82-6.24,2.45-6.85
		c1.19-0.44,2.77,1.97,3.62,1.47c0.73-0.43-0.43-2.22,0.39-3.82c0.49-0.95,0.92-1.35,5.9-3.33c2.12-0.84,3.48-0.98,3.98-2.05
		c0.31-0.65,0.53-1.75,0-2.45c-0.82-1.09-2.8-0.4-3.13-1.08c-1.17-2.38,1.59-2.07,1.96-3.13c0.31-0.88-1.68-1.61-2.93-1.66
		c-1.5-0.06-1.88,0.83-3.91,1.08c-1,0.12-2.59,0.11-2.74-0.39c-0.1-0.33,0.48-0.77,3.23-2.64c2.62-1.79,3.22-2.16,3.52-3.03
		c0.35-1.01,0.21-2.4-0.59-3.03c-0.88-0.69-2.26-0.23-3.82,0.29c-2.11,0.71-2.25,1.34-3.82,1.66c-1.62,0.33-3.77,0.13-4.11-0.78
		c-0.16-0.43,0.09-1.03,1.76-2.74c2.76-2.82,3.83-2.99,5.58-4.79c2.59-2.69,1.74-3.89,3.82-5.18c2.29-1.43,3.37,0.01,5.97-1.37
		c2.59-1.37,1.86-2.98,5.09-5.18c1.9-1.3,3.23-1.48,3.52-2.74c0.23-1-0.29-2.23-1.17-2.74c-0.25-0.14-0.88-0.44-3.03,0.2
		c-1.91,0.56-2.3,1.06-3.91,1.66c-0.47,0.18-4.16,1.53-4.89,0.49c-0.43-0.61,0.46-1.44,1.08-2.18c1.36-1.64,2.51-1.58,5.28-3
		c2.69-1.38,2.35-2.35,4.99-3.42c2.03-0.83,2.7-0.45,3.91-1.37c1.94-1.47,2.64-4.26,2.05-4.7c-0.71-0.52-2.47,4.26-6.75,3.91
		c-1.99-0.16-3.23-1.27-7.73-1.34c-1.07-0.02,0.41-2.54-0.26-3.52c-0.84-1.22-2.58-0.7-3.26-1.89c-0.41-0.72-0.32-2.35,0-3.07
		c0.26-0.59,7.78,0.6,10.5-1.11c2.8-1.76,4.76-3.72,8.18-8.15c0.21-0.28-0.71-0.33-1.76-0.39c-1.62-0.09-2.17,0.61-3.33,0.39
		c-1.92-0.36-3.42-0.75-3.72-1.96c-0.27-1.09,0.89-2.88,1.6-3.59c2.3-2.31,4.65-2.61,4.85-3.16c0.82-2.25-2.83-1.08-2.54-3.13
		c0.1-0.69,1.09-0.94,2.77-1.99c1.49-0.93,3.34-2.2,3.59-3.13c0.32-1.2-3.38-0.32-3.62-1.34c-0.12-0.52,0.74-0.94,2.54-2.84
		c1.97-2.08,1.92-2.62,1.86-2.84c-0.2-0.76-1.39-0.69-2.35-0.62c-1.29,0.09-2.27,0.64-3.03,1.5c-0.9,1.02-1.07,1.64-1.86,1.86
		c-0.63,0.17-1.48,0.03-1.66-0.39c-0.22-0.51,0.57-1.84,1.99-3.36c0,0,1.37-1.3,3.46-2.93c1.24-0.96,1.59-3.07,2.78-5.17
		c1.43-2.53,1.74-3.08,2.44-4.77c0.7-1.7,1.54-4.2,1.96-7.43c0.54,2.19,0.92,3.97,1.17,5.18c0.53,2.59,0.74,4,1.86,4.6
		c0.81,0.43,1.37,0.06,1.86,0.59c0.7,0.76-0.09,1.94,0,3.62c0.07,1.38,0.77,2.35,2.15,4.3c0.83,1.16,2.09,2.94,4.3,4.5
		c2.35,1.65,4.22,1.98,4.21,3.03c-0.01,0.58-0.58,1.06-0.98,1.27c-0.65,0.34-1.02-0.18-3.82-0.98c-1.79-0.51-2.58-0.29-3.13,0
		c-0.6,0.31-1.08,1.09-0.98,1.76c0.06,0.43,0.06,1.83,3.65,2.93c2.11,0.65,4.52,1.09,7.17,1.3c5.61,0.46,6.03-1.6,6.98-0.42
		c0.79,0.98-0.41,1.98,0.39,3.91c0.82,1.98,2.67,2.35,2.54,3.72c-0.07,0.69-0.61,1.37-1.08,1.37c-0.65,0-0.68-1.31-1.76-1.96
		c-0.97-0.58-1.5,0.15-3.23-0.1c-2.06-0.29-2.53-1.5-3.82-1.17c-0.87,0.22-1.72,1.04-1.66,1.76c0.08,1.13,2.61,0.37,2.45,2.35
		c-0.16,1.96-2.55,1.67-2.64,3.23c-0.07,1.22,1.52,1.76,1.27,2.84c-0.2,0.9-1.49,1.36-2.05,1.57c-1.58,0.57-2.63,0.13-2.84,0.59
		c-0.21,0.46,0.61,1.42,1.57,1.96c1.46,0.82,2.27,0.1,3.91,0.49c2.54,0.6,2.36,2.72,4.79,3.33c2.18,0.54,3.4-0.89,4.5,0
		c1.08,0.87,0.26,3.32,1.5,4.73c1.13,1.28,2.62,0.06,2.8,0.95c0.16,0.74-0.84,1.62-1.57,2.05c-1.37,0.81-2.36,0.36-5.58,0.59
		c-2.98,0.21-3.39,0.69-3.52,0.88c-0.15,0.21,0.19,1.1,1.4,4.34c1.19,3.16,1.06,4.51,2.51,5.25c1.73,0.88,3.8,0.39,4.21,0.29
		c1.77-0.42,2.59-1.36,3.13-0.98c0.56,0.4-0.99,1.71-0.33,3.39c0.72,1.83,2.37,2.8,3.98,3.46c1.85,0.75,2.8,0.06,3.39,0.78
		c0.71,0.87-1.61,2.64-1.17,4.4c0.75,2.98,6.91,4.27,10.09,6.14c0.61,0.36,0.03,1.28-0.21,3.45c-0.46,4.04-1.47,4.77-0.98,6.46
		c0.55,1.89,2.71,3.97,5.09,3.62c2.07-0.31,3.84-2.39,3.62-4.01c-0.29-2.17-4.05-3.01-3.82-3.82c0.14-0.46,1.42-0.34,5.09-0.68
		c2.71-0.25,3.57-0.46,4.21-1.17c0.57-0.63,0.77-1.57,0.39-2.45c-0.68-1.58-3.37-1.35-3.52-2.25c-0.11-0.66,1.09-1.71,4.3-3.88
		c2.41-1.63,2.95-1.9,3.2-2.61c0.51-1.45,0.43-3.31-0.65-3.78c-0.43-0.19-1.08-0.18-2.64,0.78c-3.82,2.38-4.62,5.84-5.38,5.54
		c-0.49-0.19-1.01-2.01-0.49-3.29c0.53-1.31,1.45-1.86,3.72-3.42c4.27-2.95,4.6-3.85,5.58-5.02c0.35-0.42,1-2.1,0.29-3.1
		c-0.64-0.91-2.06-0.89-2.54-0.88c-1.56,0.02-2.18,0.75-4.89,1.96c-1.54,0.68-3.07,1.21-3.13,1.08c-0.09-0.18,1.14-1.89,4.47-3.75
		c1.69-0.95,3.37-2.62,3.46-4.57c0.07-1.43-0.5-3.35-1.96-4.3c-2.32-1.52-5.08,0.69-5.86-0.52c-0.43-0.66-0.12-2.04,0.29-2.71
		c1.01-1.66,3.71-1.09,7.63-2.45c4.19-1.44,5.38-3.08,5.84-3.72c0.73-1.02,2.44-1.62,2.32-3.16c-0.24-3.1-2.39-0.42-3.47-5.25
		c-0.24-1.09-1.6-1.01-2.25-0.78c-1.21,0.42-0.9,2.56-2.05,2.93c-0.87,0.28-2.2-0.58-2.25-1.37c-0.05-0.87,1.42-1.6,2.93-2.35
		c2.28-1.13,3.04-0.9,4.5-1.96c1.05-0.77,2.38-2.15,2.05-2.93c-0.35-0.83-2.26-0.33-2.54-1.08c0,0,1.48-1.58,3.23-3.91
		c0.32-0.42,1.52-2.09,2.25-4.5c0.58-1.93,0.66-3.67,0.59-4.99c0.33,1.15,0.8,2.91,1.27,5.09c0.79,3.62,0.65,4.08,1.27,6.46
		c0.98,3.72,1.55,5.88,3.42,7.43c1.9,1.57,4.02,2.22,3.98,2.93c-0.06,0.94-3.74,0.27-4.08,1.76c-0.21,0.92,0.89,2.33,2.15,2.74
		c0.51,0.16,3.35-0.39,4.3,0.59c0.34,0.35-0.66,0.86-1.08,1.04c-1.17,0.51-0.75,0.22-2.25,1.11c-1.33,0.78-1.85,2.34-1.76,3.72
		c0.16,2.44,1.99,1.5,2.71,5.35c0.24,1.29,2.61,0.26,5.22,0.82c2.64,0.56,2.91,0.37,4.3,0.88c1.04,0.38,2.63,0.96,3.91,2.35
		c2.51,2.72,2.17,6.7,1.96,6.75c-0.13,0.03-0.23-1.56-1.57-3.13c-0.39-0.46-1.26-1.85-2.45-1.76c-1.56,0.12-6.04,3.45-5.64,6.16
		c0.38,2.58,3.81,3.62,3.62,5.96c-0.06,0.77-0.42,0.97-1.1,1.18c-1.15,0.36-2.38-1.27-2.93-0.88c-0.32,0.23-0.25,1.01,0,1.57
		c0.69,1.53,2.72,1.8,4.66,1.24c1.17-0.34,1.8-0.41,2.67-0.36c1.33,0.07,0.9,1.64,2.49,1.65c1.79,0.01,2.91-0.55,3.77,0.01
		c0.91,0.59,0.11,1.95,1.08,3.82c0.85,1.64,2.36,2.21,2.05,2.64c-0.65,0.91-1.88,0.4-3.35,0.48c-1.03,0.06-2.11,0.34-2.13,1.41
		c-0.03,2.1,0.84,3.12,0.1,5.64c-0.63,2.13-2.4,2.58-2.18,4.21c0.13,1,0.66,1.66,0.91,1.76c0.89,0.36,4.15-0.31,5.45-0.54
		c1.33-0.24,2.69-1.63,4.07-1.22c0.57,0.17,1.55,0.04,1.53,0.49c-0.03,0.82-2.2,0.79-3.03,2.15c-0.85,1.39,0.16,3.44,0.29,3.72
		c1.94,3.94,4.92,5.32,7.53,6.55c0.13,0.06,0.84,0.72,0.36,1.15c-0.43,0.39-1.31,0.03-3.17-0.76c-2.89-1.23-3.75-1.61-6.29-2.74
		c-1.67-0.74-2.62-1.15-3.82-0.88c-1.4,0.31-2.28,1.26-2.28,2.51c0,1.26,0.89,2.36,3.07,3.55c3.21,1.76,4.07,1.33,7.04,2.93
		c2.15,1.15,3.6,2.4,4.79,3.42c1.87,1.6,3.17,2.33,3.23,3.42c0.13,2.51-2.15,8.18-2.64,7.92c-0.7-0.37-2.3-1.28-3.88-2.61
		c-2.41-2.04-3.31-3.78-5.41-4.14c-0.84-0.14-2.7-0.58-3.82,0.49c-1.02,0.98-1.96,2.44-1.4,3.72c1.37,3.13,7.6,4.22,8.25,4.3
		c1.99,0.26,3.52,0.01,5.18,1.17c1.2,0.84,1.34,1.64,1.37,1.86c0.15,1.2-0.84,2.44-1.37,2.35c-0.46-0.08-0.22-1.12-1.08-1.96
		c-0.79-0.77-1.91-0.78-2.35-0.78c-1.06-0.01-2.75,0.37-2.93,1.27c-0.15,0.74,0.79,1.51,1.47,2.05c1.54,1.24,2.55,1.19,4.5,2.15
		c0.56,0.28,2.04,1.02,3.42,2.35c1.25,1.19,1.21,1.71,3.13,4.3c2.3,3.11,2.98,3.19,3.33,3.23c1.79,0.2,1.03-0.85,2.58-2.35
		c1.72-1.67,1.98-1.8,3-2.54c1.35-0.98,1.4-1.34,1.57-2.02c0.28-1.13-1.31-2.43-1.46-2.55c-0.86-0.64-1.08-1.2-4.6-1.01
		c-3,0.16-3.85,0.23-4.11-0.98c-0.33-1.5,0.9-1.35,1.96-1.76c4.04-1.58,4.69-2.6,6.52-3.95c0.52-0.38,2.61-2.41,5.74-5.54
		c1.08-1.08,1.75-1.98,1.43-2.74c-0.4-0.97-1.99-0.96-2.74-1.04c-0.98-0.11-4.05,0.08-6.33,0.78c-3.76,1.16-4.45,1.74-4.63,1.43
		c-0.14-0.23,1.01-0.85,2.54-2.64c1.47-1.72,1.41-2.31,2.35-2.74c1.48-0.67,2.11-0.04,3.07-0.75c0.98-0.73,1.06-2.42,0.65-3.46
		c-0.55-1.42-2.71-0.55-2.73-1.06c-0.01-0.56,2.24-0.95,3.31-2.46c0.74-1.04,0.8-2.69,0.1-3.72c-1.03-1.51-3.43-1.3-3.42-1.76
		c0.01-0.35,1.35-0.41,3.13-0.98c1.32-0.42,3.62-1.19,5.09-3.13c0.75-0.99,1.65-2.77,1.08-3.42c-0.91-1.04-4.99,1.4-5.28,0.88
		c-0.18-0.33,0.5-1.54,0.95-1.89c1.47-1.16,2.66-0.53,3.46-1.24c1.03-0.92,1.99-3.07,1.96-4.79c-0.07-3.23-1.38-2.26-1.08-3.62
		c0.19-0.83,0.81-0.95,2.25-2.09c1.71-1.36,2.4-1.78,2.74-2.61c0.45-1.11,0.03-2.67-0.88-3.23c-0.87-0.53-1.85,0.06-2.05-0.29
		c-0.31-0.53,1.78-2.08,2.93-3.42c1.37-1.59,2.66-4.34,2.25-9.39c0.58,2.32,0.95,4.22,1.17,5.48c0.52,2.95,0.52,3.94,1.17,7.92
		c0.31,1.87,1.08,3.2,1.47,4.89c1.08,4.73,1.24,5.68,1.66,6.07c1.49,1.38,2.48,0.49,4.3,2.05c1.75,1.49,1.32,2.71,2.93,3.62
		c1.67,0.94,2.44,1.24,3.62,2.22c1.54,1.28,1.57,2.95,1.17,3.07c-0.29,0.08-0.98-0.93-2.41-1.96c-0.17-0.12-1.83-1.11-3.07-0.78
		c-2.07,0.54-3.85,1.04-3.72,1.86c0.15,0.92,0.75,1.69,2.05,2.84c1.69,1.49,5.64,3.78,8.22,3.62c1.78-0.11,2.16-1.19,3.33-0.78
		c0.31,0.11,2.38,4.53,2.32,5.32c-0.09,1.12-1.54,1-2.32,1.14c-0.77,0.14-1.34,0.1-4.5-0.39c-2.24-0.35-2.78-0.46-3.42-0.1
		c-0.74,0.42-1.31,1.29-1.37,2.15c-0.14,2.13,2.29,4.03,3.46,4.7c2.41,1.38,4.89,2.02,8.41,2.54c1.14,0.17-0.33,1.03,3,2.74
		c1.41,0.72,3.05,0.72,5.18,2.35c1.21,0.92,1.78,1.52,1.76,2.25c-0.02,0.64-0.78,1.48-1.47,1.72c-1.41,0.49-2.09-1.8-4.6-1.92
		c-0.35-0.02-1.62-0.04-2.74,0.78c-1.04,0.77-1.39,1.85-1.66,2.74c-0.61,1.99,0.52,3.66,0.72,4.66c0.21,1.09-0.74,3.59,1.04,5.48
		c1.34,1.42,2.32,0.65,5.18,2.58c2.7,1.81,2.95,2.75,5.48,4.01c1.44,0.71,2.64,1.05,3.13,1.17c1.14,0.29,3.07,0.78,5.38,0.39
		c1.19-0.2,0.83,1.49,0.72,1.63c-0.98,1.24-3.05,1.76-3.16,2.38c-0.42,2.25,0.05,1.5,0.95,3.1c0.4,0.72,0.78,1.32,0.72,1.4
		c-0.54,0.75-2.04,0.13-3.26-0.49c-1.2-0.61-2.24-0.95-3.52-1.23c-2.09-0.46-2.84-1.75-5.15-1.7c-2.35,0.05-3.31,0.48-3.52,1.17
		c-0.45,1.45,6.52,4.17,9.2,6.36c5.16,4.22,10.3,4.41,10.08,5.58c-0.08,0.41-0.69,0.62-1.47,0.88c-2.62,0.89-4.27-0.44-5.18,0.39
		c-0.83,0.75-0.58,2.84,0.39,4.11c0.68,0.9,1.79,0.14,4.34,2.32c2.07,1.77,3.96,1.72,5.84,2.18c0.67,0.17-1.58,1.21-1.76,1.27
		c-2.06,0.66-3.03-0.6-4.5,0c-1.78,0.73-2.25,3.34-2.35,3.91c-0.12,0.68-0.39,2.21,0.39,3.62c0.96,1.72,2.05,0.1,4.79,3.33
		c1.39,1.63,3.08,3.37,2.64,4.01c-0.28,0.42-1.15-0.06-3.13,0c-1.51,0.05-3.14,0.1-3.91,1.08c-0.93,1.17-0.25,2.98,0.88,4.4
		c1.74,2.18,4.6,2.5,4.6,3.52c0,0.48-0.43,0.52-1.01,0.65c0,0-2.31-0.81-4.08-0.95c-1.22-0.09-2.72,0.51-2.93,1.37
		c-0.33,1.28,2.23,2.89,4.01,4.01c1.95,1.23,3.32,2.09,4.89,1.76c1.34-0.28,1.67-1.18,2.74-1.08c1.11,0.11,1.44,1.14,2.74,2.54
		c2.49,2.69,5.79,3.79,6.46,4.01c2.17,0.72,3.43,0.54,3.62,1.27c0.21,0.8-1.07,1.95-2.25,2.45c-0.57,0.24-1.14,0.34-2.84,0.29
		c-3.65-0.09-3.86-0.62-4.6-0.2c-1.04,0.6-1.43,1.73-2.54,4.79c-0.38,1.05-0.81,1.3-1.17,1.47c-1.03,0.46-3.23,0.23-3.52,0.78
		c-0.28,0.53,0.28,2.06,3.39,4.66c3.58,3,6.07,4.57,6.07,4.57c3.47,2.71,4.28,3.47,4.11,4.7c-0.13,0.95-0.52,1.35-0.65,1.43
		c-1.46,0.89-2.75-0.21-3.62,0.49c-1.2,0.96,0.5,3.62-0.68,4.79c-0.98,0.98-2.61-0.4-4.99,0.39c-1.68,0.56-3.53,2.15-3.52,3.62
		c0.03,5.25,8.01,3.91,7.83,5.58c-0.09,0.85-2.41,1.39-7.04,2.45c-4.35,0.99-5.77,1.01-6.65,2.35c-0.86,1.31-0.87,3.39,0,4.7
		c0.82,1.23,1.87,0.96,2.35,2.05c0.63,1.43-0.94,2.41-0.88,4.6c0.05,1.79,1.16,3.67,2.64,4.6c2.01,1.26,3.35,0.69,6.03,1.37
		c1.9,0.48,1.06,2.09,2.87,3.07c2.55,1.38,5.19,0.19,5.28,0.75c0.1,0.61-3.02,0.89-3.62,2.74c-0.54,1.64,1.36,3.18,0.68,4.11
		c-0.5,0.68-1.54-0.11-3.03,0.49c-2.01,0.8-1.51,2.75-3.82,4.01c-1.14,0.62-1.93,0.51-2.45,1.37c-0.49,0.82-0.28,1.78-0.2,2.15
		c0.33,1.42,1.29,2.16,2.54,3.33c1.47,1.37,2.73,2.94,4.11,4.4c2.11,2.23,2.71,2.9,3.42,4.01c0.8,1.24,1.2,1.86,1.47,2.84
		c0.65,2.38-0.44,3.41,0.39,5.09c0.68,1.37,2.04,1.97,2.45,2.15c2.48,1.1,5.19-0.08,5.18,0.39c-0.03,2.54-2.08,0.71-3.1,2.35
		c-0.82,1.32,0.14,2.11-0.62,2.93c-0.47,0.51-1.3,0.91-4.21,0.68c-3.66-0.28-3.96-1.04-6.55-1.17c-0.45-0.02-3.36-0.14-6.46,1.37
		c-1.38,0.67-2.27,1.06-2.45,2.32c-0.23,1.62,1.69,3.1,2.28,3.52c3.26,2.32,6.62,2.01,6.72,2.87c0.06,0.5-1.16,1.13-1.57,1.17
		c-1.76,0.2-5.17-0.04-8.28,0.2c-2.52,0.19-5.41,0.33-5.8,3.03c-0.17,1.19,1.54,2.4,1.96,2.64c0.78,0.46,4.77-0.13,10.57,0.13
		c5.8,0.26,13.87-0.14,14.59,1.07c0.44,0.75,0.35,0.62,2.33,3.21c0.87,1.13,1.31,1.62,1.37,2.45c0.09,1.22-0.65,2.52-1.57,3.03
		c-0.71,0.4-2.97,0.01-6.75,0.1c-2.87,0.07-6.58-0.61-10.47,0.59c-1.25,0.38-2.17,0.84-4.01,1.76c-3.46,1.73-6.31,3.15-6.26,4.89
		c0.02,0.82,0.68,1.47,1.37,2.15c1.23,1.21,2.63,1.69,3.13,1.76c3.66,0.52,13.83-0.26,15.06,0.16c0.22,0.07,1.79,1.06,1.96,3.07
		c0.39,4.66-1.58,4.29-1.7,5.18c-0.18,1.42,1.43,1.7,1.01,2.25c-0.33,0.44-1.37,0.68-2.32,0.62c-1.68-0.1-4.39,0.09-5.67,0.78
		c-2.25,1.2-1.5,3.46-3.16,4.27c-1.02,0.5-1.18,0.24-2.64,0.98c-1.33,0.67-2.8,0.75-3.13,2.74c-0.19,1.17,0.61,1.67,0.2,2.74
		c-0.42,1.08-1.59,1.2-1.57,1.76c0.03,0.66,1.56,1.85,3.13,1.99c1.63,0.15,7.16-0.34,7.77-0.03c1.05,0.53-0.09,1.86,0.38,5.32
		c0.17,1.26,0.99,1.42,1.53,2.51c0.71,1.44,1.13,1.76,0.98,2.15c-0.32,0.86-2.72,0.62-6.75,0.39c-7.27-0.41-9.2-0.18-9.39,0.49
		c-0.08,0.27,0.21,0.35,0.68,1.37c0.22,0.46,0.76,1.64,0.78,3.03c0.01,0.79,0.01,2.06-0.68,2.84c-1.04,1.17-6.52-0.65-8.51,0.59
		c-1.19,0.74-1.62,2.09-1.66,2.45c-0.22,1.72,0.91,5.38,0.29,6.07c-0.82,0.9-2.97-0.36-4.11,0.29c-0.9,0.52-0.89,2.13-0.59,3.13
		c0.44,1.45,0.89,1.67,0.75,2.48c-0.06,0.36-0.39,1.01-1.83,1.43L-2.71,171.39z"/>
</g>
<g id="Words">
	<path id="Outline" class="st8" d="M32.87,9.52C19.43,9.65,4.31,23.11,4.57,38.09C4.82,52.71,18.07,65.6,30,65.48
		c3.21-0.03,6.22-0.81,8.15-1.76v4.57c-3.86,2.95-6.59,6.78-6.72,11.61c-0.14,5.29,4.71,9.35,10.17,9.72h27.91
		c0.84-0.21,2.63-0.77,4.3-2.35c1.68-1.58,2.35-3.35,2.61-4.17c0.49,0.97,1.44,2.52,3.13,3.91c2.2,1.81,4.47,2.4,5.61,2.61h26.35
		c0.65-0.03,1.77-0.17,3-0.78c1.08-0.54,1.8-1.23,2.22-1.7c3.62,1.6,9.62,3.66,17.22,3.65c12.76-0.01,21.88-5.88,25.3-8.35
		c1.6,1.63,9.25,9.07,20.87,9c6.27-0.04,11.32-2.51,13.83-3.91c1.41,2.82,3.16,6.49,6,10.04c2.77,3.46,5.57,6.12,7.96,8.09v14.87
		c3.13,19.7,20.8,30.39,38.48,29.74c14.5-0.54,25.34-6.35,28.89-8.93c2.45,1.34,7.52,4.05,14.41,4.11c7.79,0.07,13.5-2.87,15.91-4.3
		c0.72,0.65,1.67,1.39,2.87,2.09c1.37,0.79,2.64,1.27,3.65,1.57H330c0.44-0.03,1.16-0.13,1.96-0.52c0.76-0.37,1.27-0.85,1.57-1.17
		c0.01,0.01,2.07,0.78,2.09,0.78s2.07,0.78,2.09,0.78H354c0.28,0.06,1.07,0.19,1.96-0.2c0.98-0.42,1.43-1.19,1.57-1.43
		c0.11,0.23,0.41,0.77,1.04,1.17c0.66,0.42,1.31,0.46,1.57,0.46h7.11v5.72c0.31,0.86,0.99,2.37,2.41,3.8
		c1.58,1.58,3.28,2.26,4.17,2.54h23.09c0.61-0.01,3-0.1,5.02-1.96c1.48-1.36,1.98-2.97,2.15-3.65v-5.93h7.43
		c0.97-0.42,2.15-1.05,3.39-1.96c1.38-1.01,2.4-2.07,3.13-2.93c2.74,1.45,8.28,3.9,15.65,3.91c5.95,0.01,10.61-1.58,13.3-2.74
		c1,0.48,2.04,0.96,3.13,1.43c1.09,0.47,2.16,0.91,3.2,1.3h24.13c0.61-0.02,1.52-0.12,2.54-0.52c0.8-0.32,1.4-0.72,1.83-1.04
		c0.25,0.3,0.67,0.74,1.3,1.11c0.61,0.36,1.19,0.51,1.57,0.59h6.33c0.21,0.2,0.47,0.5,0.72,0.91c0.37,0.62,0.49,1.18,0.52,1.3
		c0.26,1.1,0.34,4.3,2.61,6.46c3.05,2.9,9.72,3.91,12.07,3.78c9.86-0.55,16.19-8.81,17.48-10.57l15.98-35.74
		c0.48-0.78,1.32-1.94,2.67-3c1.2-0.94,2.37-1.47,3.2-1.76c1.19,0.09,2.95,0.11,5.02-0.33c3.64-0.77,6.08-2.5,7.76-3.72
		c1.53-1.11,3.74-2.98,5.8-5.87l17.93-35.09c0.74-2.21,1.81-3.74,2.54-4.63c1.25-1.51,2.53-2.42,3.46-3.07
		c1.67-1.16,2.19-1.12,3.07-1.76c2.95-2.16,3-6.8,3-7.11c-0.01-4.41-3.73-8.82-9.33-10.63h-19.04c-0.28,0.32-1.65,1.4-3.91,1.57
		c-3.07,0.23-4.96-1.79-5.09-1.96H531.2c-3.07-1.38-8.64-3.38-15.72-3.07c-11.92,0.52-22.07,6.16-22.24,9.39c0.2-3.72,0,0,0.13-8.74
		c0.26-10.5-8.8-20.74-25.17-22.57h-45.33c-2.37,0.16-10.38,0.99-17.35,7.43c-6.1,5.64-7.88,12.66-8.41,15.13
		c-1.08-0.86-2.83-2.3-5.02-2.35c-3.03-0.06-3.7,1.47-6.78,2.15c-4.34,0.96-6.24-1.86-11.93-2.02c-2.98-0.08-6.56,2.66-7.5,1.24
		c-3.78-5.67-8.4-9.56-14.93-9.52c-6.92,0.04-13.2,4.36-15.78,10.89h-3.52c-2.05,1.9-3.51,2.09-4.43,1.96
		c-2.17-0.32-2.79-2.68-5.15-3.2c-1.71-0.38-3.34,0.44-4.37,1.11l-11.22,6.13c-0.38,0.38-1.06,0.95-1.98,1.04
		c-1.41,0.15-2.58-0.89-2.85-1.11c-3.16-2.64-12-6.52-20.15-6.65c-2.79-0.04-13.3-0.78-26.74,10.96l-7.89-11.8
		c-0.77-0.72-2.09-1.72-3.78-1.83c-3.2-0.2-4.7,2.97-8.15,3.85c-1.7,0.43-4.37,0.43-8.28-2.02h-11.61V10.43
		c-0.29-0.71-0.87-1.87-2.02-2.93c-0.69-0.64-1.74-1.61-3.39-1.83c-1.68-0.22-2.94,0.64-3.52,0.78c-0.26,0.07-18.65,8.35-18.65,8.35
		l-3.72,2.93c-0.55,0.61-2.52,2.95-2.61,6.52c-0.08,3.18,1.38,5.41,1.89,6.13c-2.59-0.02-6.9,0.29-11.74,2.28
		c-5.43,2.23-8.94,5.53-10.76,7.5c-2.92-2.6-13.18-11.06-28.17-11.09c-7.8-0.01-13.95,2.26-17.61,3.98v-4.04
		c3.89-1.68,6.44-5.47,6.46-9.59c0.02-4.58-3.08-8.74-7.63-10.11H82.57L76.7,13.5l-5.28-4.11L32.87,9.52z"/>
	<path class="st9" d="M582.65,40.89h-15.91c-1.06,0.05-2.28,1.37-2.28,3.13c0,2.64,3.35,3.03,3.59,5.54c0.09,1,0.01,1.51-0.39,2.22
		L562.63,63c-0.33,0.85-0.49,1.07-0.91,1.11c-0.53,0.05-0.68-0.65-1.11-1.43l-5.28-11.87c-0.26-0.56-0.37-0.91-0.36-1.66
		c0.03-2.45,3.65-2.38,3.62-5.38c-0.03-2.87-2.02-3.85-3.65-3.91h-19.5c-1.43,0.03-3,1.27-2.97,3.55c0.03,2.25,1.63,2.44,3.23,3.68
		c1.47,1.14,2.38,2.32,2.97,3.1l11.84,26.64c0.39,0.98,1.53,2.87,1.61,4.51c0.13,2.81-2.24,5.37-5.13,5.47
		c-2.27,0.08-3.86-1.67-4.17-2.02c0.58-0.07,1.44-0.35,2.48-0.72c1.86-0.65,3.98-2.58,3.98-5.09c0-2.25-1.24-2.9-2.74-3
		c-1.21-0.08-1.8,0.03-2.74-0.52c-1-0.59-1.5-1.6-1.76-2.35L534.2,48.2c-0.2-0.65-3.26-10.21-17.48-10.3
		c-11.07-0.08-20.84,7.66-17.67,11.35c3.49,4.06,5.89-2.38,12.59-2.32c6.78,0.07,7.67,4.82,9.26,8.18h-6.2
		c-1.92-0.05-7.01,0.16-10.76,1.69c-3.13,1.27-5.13,3.33-6.33,4.64c-0.48-2.3-1.66-6.3-4.76-10.24c-4.82-6.11-11.16-8.08-13.43-8.67
		c1.64-1.37,6.01-3.88,5.93-10.57c-0.13-11.02-12.03-16.6-20.67-16.76c-0.54-0.01-35.02,0-35.02,0
		c-14.28-0.11-26.08,7.93-26.09,21.78c-0.01,11.1,10.04,18.52,20.02,18.65c9.78,0.13,13.25-7.48,14.09-8.67v25.63
		c-3.52,1.52-6.21,2.93-6.33,5.93c-0.12,3.11,2.07,3.85,3.33,3.91h39.78c2.34,0.06,7.09-0.15,12.13-2.87
		c3.33-1.79,5.57-4.03,6.91-5.61c3.99,6.02,6.54,10.42,18.91,10.3c8.66-0.08,12.6-2.79,14.61-4.11c2.36,1.14,5.96,3.16,7.17,4.5
		c0.77,0.85,0.6,3.69,1.37,6.33c1.6,5.48,1.74,7.37,9.13,7.37c7.63,0,13.21-5.07,17.41-12.9l15.07-31.65
		c0.67-1.22,1.88-2.76,3.39-4.57c1.5-1.79,4.7-1.79,4.7-4.96C585.26,41.92,584.07,41.04,582.65,40.89z M437.41,37.63
		c-3.42-4.27-4.6-4.89-7.89-4.89c-2.35,0-4.01,0.68-3.98,3.46c0.01,1.17-0.62,3.54-3.98,3.52c-2.78-0.02-4.72-3.3-4.7-6.52
		c0.04-5.25,7.24-9.55,14.02-9.55c5.02,0,6.59,2.41,6.59,2.9L437.41,37.63z M456.49,25.76c0.08-0.87-0.03-1.14,3.98-1.14
		c4.47,0,6.06,3.42,6.06,7.3c0,5.32-4.03,6.82-6.35,6.82c-2.84,0-3.72-1.21-3.72-2.09C456.46,36.65,456.46,26.12,456.49,25.76z
		 M463.4,73.7c-4.76-0.01-6.88-2.32-6.88-3.03V49.79c0-1.6,3.16-3.2,5.9-3.2c7.92,0,12.75,6.89,12.75,14.54
		C475.18,71.15,467.9,73.71,463.4,73.7z M524.45,71.15c-0.18,2.93-2.8,4.66-6.65,4.66c-3.88,0-7.59-3.29-7.57-7.4
		c0.02-3.57,3.89-6.06,7.3-6.07C523.21,62.34,524.71,66.75,524.45,71.15z"/>
	<path class="st9" d="M537.9,98.22h-14.33c-0.86,0.02-2.51,0.62-2.48,2.25c0.12,1.59,1.75,2.66,1.75,2.66
		c0.39,0.49,1.6,1.51,1.57,3.25c-0.02,1.04-0.53,1.98-0.83,2.49l-4.5,9.68l-6.02-11.93c-0.22-0.25-0.49-0.64-0.44-1.08
		c0.07-0.64,0.76-0.96,1.47-1.47c0.41-0.3,2.41-1.1,2.35-3.03c-0.07-2.32-2.25-2.74-2.98-2.74h-16.78c-0.59,0.02-1.47,0.48-2.2,1.15
		c-0.92,0.85-1.11,1.85-1.32,2.37c-0.7-0.69-3.5-3.29-7.92-3.52c-5.29-0.27-8.75,3.07-9.29,3.62c-0.76-1.35-2-3.19-3.23-3.86
		c-1.22-0.67-2.5,0.38-2.84,0.59l-10.76,6.51c-0.73,0.32-1.2,1.01-1.22,1.76c-0.02,0.88,0.59,1.43,0.68,1.52l3.67,2.2v16.88
		c-0.03,0.04-0.41,0.56-0.98,0.54c-0.57-0.02-0.93-0.73-1.27-1.37c-0.2-0.49-6.51-17.76-6.51-17.76c-0.49-1.49-0.9-4.44-3.13-7.04
		c-4.07-4.73-10.16-4.81-12.28-4.84c-7.51-0.1-15.83,4.11-15.85,7.97c-0.01,1.34,0.27,3.2,2.25,3.28c1.57,0.06,4.38-3.2,8.88-3.23
		c3.33-0.02,7.36,1.86,7.56,6.55l-8.85,0.29c-1.69,0.37-4.52,1.02-7.12,2.52c-2.68,1.55-4.13,3.41-5.31,4.72l-0.27-6.97
		c-0.73-1.93-2.22-5.13-5.21-8.39c-1.86-2.03-4.3-5.82-11.47-5.89c-6.16-0.27-9.86,3.32-11.03,4.33l-1.27-3.42
		c-0.09-0.34-0.27-1.03-1.86-1.05c-1.44-0.02-2.76,1.05-2.76,1.05l-11.18,6.07c-0.34,0.12-0.78,0.78-0.78,1.61
		c0,0.97,0.77,1.99,1.05,2.23c1.33,1.1,2.5,0.78,3.18,1.79c0.3,0.45,0.53,1.06,0.51,1.37v15.26l-4.45-14.87
		c-0.51-1.44-1.67-5.42-4.16-9.15c-0.86-1.25-3.01-4.6-9.15-4.7c-7.41-0.22-7.95,4.21-9.88,4.35c-2.49-0.05-2.23-2.46-5.67-3.91
		c-2.6-1.1-4.97-0.96-6.11-0.88c-5.46,0.38-9.32,3.96-9.9,3.99c-1.15,0.05-0.44-3.77-3.2-3.64c-1.93,0.09-6.12-0.03-15.99,8.85
		c-0.82-1.06-8.09-9.74-19.81-9.78c-13.26-0.05-21.8,7.71-21.67,18.05c0.05,3.89,0.28,7.15,1.03,9.2c-1.13,1.3-6.97,8.02-15.46,7.63
		c-12.73-0.59-19.32-7.47-19.71-20.2c-0.13-4.13,0.54-7.56,1.37-9.73c0,0,0.94,1.19,2.84,1.27c3.78,0.16,12.21-3.73,18.23-11.54
		l11.27,10.52c1.41,1.23,3.51,1.2,4.84,0c1.23-1.11,1.53-3,0.68-4.5l-5.67-14.14c-0.16-0.36-1.31-1.32-2.84-1.57
		c-2.77-0.43-4.7,1.89-4.79,2.01v-8.61c6,5.2,7.99,8.2,22.84,8.22c13.55,0.02,24.93-6.54,25.39-20.74c0.2-4.74-1.35-7.86-2.89-10.37
		c0.62-0.69,1.13-0.74,1.32-0.73c1.08,0.01,2.26,1.58,2.49,4.01V69.6c0.09,0.95,0.06,2.23-0.54,3.52c-0.27,0.58-0.55,0.95-2.25,2.98
		c-1.13,1.19-2.21,1.4-2.15,3.13c-0.05,2.64,1.7,2.84,2.84,2.79h19.52c1.13,0.05,3.34-0.41,3.38-2.79c0.03-2.02-1.2-2.31-1.76-2.64
		c-0.65-0.42-1.16-0.56-2.01-1.17c-0.91-0.66-1.78-1.4-1.81-2.01V52.58c0.1-0.48,0.46-1.95,1.81-3.08c0.35-0.29,1.49-1.03,3.11-0.95
		c1.75,0.1,3.41,1.16,4.13,3.1l5.48,15.8c0.27,0.73,0.47,1.98,0.44,3.41c-0.04,1.82-0.51,2.97-1.03,3.68
		c-0.46,0.64-0.47,0.82-2.04,2.02c-1.01,0.77-1.65,1.11-1.63,2.58c0.03,2.15,1.96,2.74,2.64,2.79h20.93c0.21,0,0.98-0.04,1.61-0.64
		c0.92-0.85,0.75-2.09,0.73-2.2l2.77,4.13c0.33,0.49,1.24,1.3,2.67,1.27c2.18-0.05,3.26-0.63,4.21-2.48
		c2.97-0.13,9.11,1.96,17.02,1.99c10.5,0.13,16-6.33,15.98-14.69c-0.03-12.37-13.99-14.74-18.44-16.29
		c-5.26-2.18-9.86-3.13-9.8-5.61c0.04-1.45,0.98-2.48,4.89-2.48c3.75,0,6.13,0.75,15.82,7.16c1.28,0.85,2.27,1.94,3.96,1.13
		c1.42-0.68,1.02-3.35,0.39-4.94c-0.53-1.34-4.52-8.69-6.11-10.42c-0.82-0.89-2.21-1.41-3.33-1.03c-1.09,0.38-1.18,0.7-2.74,1.61
		c0,0-0.46,0.5-1.3,0.46c-2.64-0.13-4.24-1.99-11.61-2.02c-8.35-0.03-16.33,2.21-16.39,12.23c-0.05,9.59,8,11.81,14.72,15.03
		c7.14,3.42,13.19,4.24,13.26,7.32c0.05,2.4-2.68,3.2-5.4,3.24c-10.89,0.16-20.66-10.73-22.04-10.73c-1.63,0-2.83,1.66-2.8,3.72
		c0.03,3.03,3.24,7.06,2.71,7.53c-0.55,0.49-2.09-1.46-2.84-2.54c-1.85-2.7-2.17-4.7-2.35-5.48c-0.75-3.2-3.91-17.18-7.19-22.26
		c-0.97-1.5-4.84-6.64-11.49-6.85c-5.71-0.18-10.37,4.14-11.25,5.09v-3.23c0-0.54-1.17-1.68-3.23-1.71c-2.51-0.04-4.3,1.03-4.6,1.27
		l-13.16,8.51c-1.25-1.41-9.37-9.99-21.77-9.88c-14.15,0.13-25.7,7.53-25.63,22.79c0,4.65,0,0,0,4.65
		c-4.28-5.68-8.67-7.88-11.69-9.29c-6.9-3.21-10.94-3.88-13.52-4.74c-4.41-1.49-5.84-1.83-5.9-3.82c0.06-1.43,1.5-2.12,4.86-2.15
		c9.29-0.1,15.36,8.02,19.01,7.73c1.61-0.13,2.04-1.96,2.09-2.64c0.1-1.5-5.87-13.53-9.28-13.6c-1.98-0.04-3.47,2.33-5.4,2.3
		c-1.72-0.03-1.01-2.14-12.01-2.1c-8.72,0.03-11.85,2.54-15.85,8.95V18.73c-0.02-0.47-0.86-2.07-3.13-2.22
		c-1.42-0.1-2.48,0.46-2.79,0.66l-12.03,5.87c-1.07,0.35-1.89,0.8-1.81,2.35c0.08,1.61,0.98,1.98,1.08,2.05l4.26,2.79v9.98
		c-2.65-1.43-5.25-2.51-11.58-2.58c-11.04,0.42-19.21,8.09-22.22,18.86c-3.92-11.56-13.42-18.93-27-19.08
		c-15.77-0.08-21.05,6.41-26.07,19.27V25.97c0.26-0.73,1.98-1.37,3.23-2.2c2.07-1.37,2.48-1.73,2.64-3.65
		c0.16-2.77-1.73-3.93-3.33-3.93H85.65c-1.19,0-2.97,1.92-3.02,3.31c-0.07,2.18,1.46,3.55,2.64,4.08c0.79,0.35,0.63,0.26,2.15,1.14
		c0.57,0.53,0.96,0.62,1.06,1.11v13.65c0.01,0.26,0,0.93-0.44,1.57c-0.74,1.08-2.06,1.12-2.2,1.13H67.06
		c-0.77,0.03-1.49-0.15-2.17-0.62c-0.77-0.54-1.04-1.24-1.11-1.78V25.83c0.66-0.44,1.25-1.05,2.35-1.78
		c1.66-1.12,3.13-1.61,3.13-3.89c-0.07-2.84-2.15-3.96-3.82-3.96H38.59c-15.41,0.88-26.27,9.39-26.8,21.77
		c-0.41,9.54,9.67,18.88,19.81,18.93c9.29,0.05,13.34-8.66,13.99-9.73v23.97c0.05,0.57-0.11,1.17-0.64,1.81
		c-0.66,0.81-1.31,1.08-2.49,1.42c-1.37,0.39-2.45,1.13-2.45,3.82c0,2.79,1.76,3.57,4.5,3.62h22.5c1.54-0.63,2.89-1.47,2.98-3.52
		c0.12-2.44-1.34-3.22-2.59-3.82c-0.86-0.41-1.96-0.84-2.49-1.22c-0.61-0.45-0.94-0.64-1.08-1.08l0.05-18.1
		c0.22-0.68,0.27-0.89,0.78-1.27c0.42-0.31,1.12-0.29,1.37-0.34h20.84c0.2,0,0.97,0.01,1.66,0.59c0.71,0.59,0.85,1.37,0.88,1.57
		v15.65c-0.05,0.77-0.26,1.81-0.98,2.69c-0.62,0.76-1.18,0.93-2.01,1.47c-0.38,0.25-2.4,0.68-2.4,3.86c0,2.71,1.54,3.6,3.08,3.67
		h23.43c0.4-0.06,1.44-0.27,2.35-1.13c0.29-0.28,0.93-1.08,0.95-2.35c0.02-1.3-1.89-3.03-2.37-3.4c-0.7-0.53-0.9-0.64-1.96-1.25
		c-0.9-0.52-1.86-1.03-2.01-1.57v-8.85c5.38,17.41,15.41,19.1,27.29,19.03c10.31-0.06,19.98-3.18,25.09-15.11
		c5.55,13.57,12.06,15.38,20.69,15.46c6.04,0.05,9.54-1.74,12.79-4.6c0.12,0.51,0.59,2.37,2.52,4.26c1.46,1.42,6.19,0.49,6.41,0.39
		c-0.62,0.96-0.98,1.2-1.03,2.69c-0.14,4.13,7.21,14.43,15.38,16.11c-0.84,2.64-1.41,5.94-1.39,10.45
		c0.08,20.14,15.6,30.06,34.48,30.23c16.34,0.15,21.82-8.64,24.26-11.15c2.46,1.77,6.42,5.32,18.1,5.28
		c14.22-0.05,21.62-9.7,21.77-17.61c0.06-3.24-0.38-5.82-1.32-7.92c0.14-0.03,1.18-0.2,2.05,0.54c0.8,0.67,0.87,1.6,0.88,1.76v13.55
		c0.01,0.74,0.02,1.54-0.49,2.35c-0.5,0.79-0.93,0.97-2.15,1.86c-1.03,0.75-1.63,0.95-1.66,2.3c-0.05,2.23,1.76,2.69,2.54,2.64
		c0.28-0.02,16.34,0,16.34,0c0.9-0.08,2.14-0.72,2.2-2.53c-0.03-1.63-1.06-2.29-1.17-2.36c-0.75-0.48-0.94-0.51-1.71-1.08
		c-0.71-0.52-0.96-1.24-0.98-1.91v-16.24c0.03-0.49,0.85-1.32,1.66-2.1c0.92-0.88,2.48-2.37,4.3-2.25c1.82,0.12,3.51,1.82,4.26,4.16
		v17.12c-0.02,0.44-0.31,0.86-0.73,1.32c-0.51,0.56-0.89,0.68-1.47,0.98c-0.82,0.42-1.65,0.78-1.63,2.62
		c0.02,1.73,1.18,2.37,2.31,2.41h16.73c0.86,0.05,2.12-0.65,2.1-2.64c-0.08-1.53-0.89-1.83-1.68-2.45c-0.4-0.31-1.21-0.91-1.21-0.91
		s-1.32-0.96-1.32-1.29v-17.46c-0.02-0.38,0.34-1.31,1.17-2.1c0.12-0.11,1.17-1.09,2.74-1.13c1.43-0.03,3.19,0.56,3.96,2.4
		c2.69,6.43,5.25,16.38,5.23,16.78c-0.07,2.13-1.88,3.23-1.88,3.23c-0.58,0.51-2.3,1.27-2.35,3.3c-0.05,2.03,1.22,2.49,2.23,2.52
		h15.41c0.08,0.01,0.33,0.07,0.54,0.29c0.22,0.24,0.24,0.51,0.24,0.59v4.55l-3.25,2.52c-0.36,0.27-1.61,0.98-1.54,2.42
		c0,2.2,2.44,2.97,6.07,3.03h13.26c2.01,0.01,3.47-0.98,3.52-2.79c-0.12-1.59-0.74-2.03-1.76-2.84l-3.47-2.64v-8.51
		c0.87,0.77,5.48,4.7,12.55,4.6c9,0.24,13.49-9.56,13.72-10.03c0.79,1.11,3.96,9.07,15.8,9.37c9-0.2,11.96-2.78,13.55-3.84
		c0.81,0.61,1.87,1.3,3.18,1.91c1.04,0.48,1.76,1.05,2.84,1.03h23.87c1.22,0.02,2.67-0.61,2.76-2.79c-0.07-1.27-0.5-1.54-1.35-2.15
		c-1.19-0.86-1.51-1.02-2.45-1.86c-0.61-0.55-1-1.1-1.03-1.66v-15.7c-0.02-0.56,0.37-1.78,1.42-2.93c0.54-0.6,1.7-1.92,3.33-1.81
		c1.42,0.09,2.7,1.23,3.28,2.84l4.6,12.62v6.6c-2.15,0.76-3.4,2.62-3.42,4.01c-0.05,1.76,1.15,2.89,2.49,2.93h9
		c0.32,0.42,0.61,1.35,0.98,2.2c0.66,2.09,0.83,2.86,0.93,4.26c0.1,4.23,1.96,5.78,7.88,5.72c8.29-0.07,10.73-4,14.38-11.3
		c0.15-0.29,10.86-24.51,10.86-24.51c0.34-1.21,0.99-2.93,2.3-4.65c2.97-3.89,6.46-4.3,6.46-6.8
		C539.76,99.39,538.95,98.34,537.9,98.22z M277.09,45.78c6.51,0,15.51,11.93,15.51,22.45c0,3.42-1.32,7.53-6.65,7.53
		c-6.7,0-15.51-11.74-15.51-22.65C270.44,47.98,272.59,45.78,277.09,45.78z M45.46,40.08c-0.72-0.98-4.63-6.29-8.22-6.29
		c-2.8,0-3.67,1.47-3.73,4.43c-0.03,1.57-0.64,3.52-3.64,3.52c-3.53,0-4.99-2.87-4.86-6.49c0.26-7.21,7.5-11.28,13.04-11.28
		c6.42,0,7.4,3.55,7.4,4.66V40.08z M138.52,74.74c-8.56,0-16.14-13.35-16.14-22.55c0-5.18,2.89-8.17,6.07-8.17
		c7.04,0,16.12,13.6,16.09,22.79C144.52,71.13,142.73,74.74,138.52,74.74z M193.5,66.37c0,1.76-2.89,6.26-6.41,6.26
		c-5.23,0-12.76-7.78-12.77-16.24c-0.01-6.85,4.4-11.59,9.59-11.59c5.43,0,9.59,5.67,9.59,11.2V66.37z M221.18,93.82
		c-1.64-1.64-4.45-3.52-4.4-6.31c0.03-1.77,1.42-3.62,3.23-3.62c1.81,0,1.95,1.65,3.23,1.66c2.03,0.02,4.6-4.01,4.4-8.22
		c-0.26-5.55-5.28-10.17-12.18-10.27c-4.99-0.07-4.95,1.47-6.99,1.61V52.92c3.86,8.9,13.1,10.59,18.17,12.67
		c7.86,3.23,15.63,4.7,17.54,13.21c0.15,0.66,0.52,4.79,0.29,4.89c-1.05,0.46-0.24-0.76-4.26-0.93
		C232.24,82.42,221.18,93.82,221.18,93.82z M294.85,129.72c-6.45,0-14.28-11.67-14.28-19.57c0-3.59,1.57-6.52,5.67-6.52
		c6.52,0,14.28,12.39,14.28,18.85C300.52,125.87,298.57,129.72,294.85,129.72z M397.5,127.7c-4.17,0-6.33-5.48-6.33-9.85
		c0-6.85,4.13-12.78,9.07-12.78c4.7,0,7.76,5.48,7.76,9.46C408,121.37,400.89,127.7,397.5,127.7z M440.22,129.33
		c-4.3,0.13-7.83-2.8-7.83-6.52c0-2.35,3.33-4.96,6.46-4.96c3.47,0,5.67,2.54,5.67,6.85C444.52,128.22,442.36,129.26,440.22,129.33z
		 M507.16,138.46c-1.47,0-3.2-0.91-3.16-1.89c0.02-0.53,0.2-1.14,0.91-1.11c0,0,1.64-0.26,1.57-2.74c-0.07-2.18-2.81-3.23-4.24-5.87
		c-1.84-3.39-2.58-7.14-3.95-12.72c-1.98-8.04-3.82-10.07-3.68-10.18c0.34-0.26,2.81,1.79,3.15,2.16c0.91,0.98,1.45,1.88,1.83,2.54
		c0,0,9.03,18.32,9.16,18.64c0.32,0.8,1.83,2.77,1.83,6.07C510.58,135.91,510.79,138.46,507.16,138.46z"/>
	<path class="st9" d="M356.97,45.29c0.79-1.39,2.2-2.3,2.2-7.92c0-4.16-1.27-9.1-7.63-9.1c-5.23,0-7.93,2.54-7.92,6.41
		c0.01,3.92,2.42,4.53,4.45,5.87c2.07,1.36,3.89,1.62,3.67,3.57c-0.2,1.71-2.6,3.59-1.03,4.89
		C353.01,50.92,355.42,48.03,356.97,45.29z"/>
</g>
</svg>
