<?xml version="1.0" encoding="utf-8"?>
<!-- Generator: Adobe Illustrator 24.0.2, SVG Export Plug-In . SVG Version: 6.00 Build 0)  -->
<svg version="1.1" xmlns="http://www.w3.org/2000/svg" xmlns:xlink="http://www.w3.org/1999/xlink" x="0px" y="0px"
	 viewBox="0 0 1080 1080" style="enable-background:new 0 0 1080 1080;" xml:space="preserve">
<style type="text/css">
	.st0{fill:#551A8B;}
	.st1{font-family:'TimesNewRomanPSMT';}
	.st2{font-size:259px;}
	.st3{letter-spacing:-13;}
	.st4{fill:none;stroke:#551A8B;stroke-width:70;stroke-miterlimit:10;}
	.st5{fill:none;stroke:#551A8B;stroke-width:69;stroke-miterlimit:10;}
</style>
<g id="Text">
	<text transform="matrix(1 0 0 1 873.7034 929.1259)" class="st0 st1 st2 st3">t</text>
	<text transform="matrix(1 0 0 1 785.8244 929.1259)" class="st0 st1 st2 st3">s</text>
	<text transform="matrix(1 0 0 1 726.7034 929.1259)" class="st0 st1 st2 st3">i</text>
	<text transform="matrix(1 0 0 1 666.7034 929.1259)" class="st0 st1 st2 st3">l</text>
	<text transform="matrix(1 0 0 1 585.7035 929.1259)" class="st0 st1 st2 st3">s</text>
	<text transform="matrix(1 0 0 1 471.7035 929.1259)" class="st0 st1 st2 st3">g</text>
	<text transform="matrix(1 0 0 1 420.7035 929.1259)" class="st0 st1 st2 st3">i</text>
	<text transform="matrix(1 0 0 1 316.7035 929.1259)" class="st0 st1 st2 st3">a</text>
	<text transform="matrix(1 0 0 1 238.7035 929.1259)" class="st0 st1 st2 st3">r</text>
	<text transform="matrix(1 0 0 1 132.6182 928.79)" class="st0 st1 st2 st3">c</text>
</g>
<g id="Peace">
	<circle class="st4" cx="550.25" cy="380" r="261.25"/>
	<line class="st5" x1="550" y1="119" x2="550" y2="641"/>
	<polyline class="st5" points="734.54,565.17 550,384.86 365.96,565.17 	"/>
</g>
</svg>
