<?xml version="1.0" encoding="utf-8"?>
<!-- Generator: Adobe Illustrator 24.0.2, SVG Export Plug-In . SVG Version: 6.00 Build 0)  -->
<svg version="1.1" id="Layer_2" xmlns="http://www.w3.org/2000/svg" xmlns:xlink="http://www.w3.org/1999/xlink" x="0px" y="0px"
	 viewBox="0 0 1108.17 678.52" style="enable-background:new 0 0 1108.17 678.52;" xml:space="preserve">
<style type="text/css">
	.st0{fill:none;stroke:#FFFFFF;stroke-width:60;stroke-linecap:round;stroke-linejoin:round;stroke-miterlimit:10;}
</style>
<path class="st0" d="M134.3,635.33c34.18-72.02,69.39-160.01,97.63-262.73c34.5-125.5,49.1-238.44,54.56-330.21
	c24.72,95.15,58.76,202.45,106.24,317.29c43.19,104.47,89.76,196.45,134.96,275.66c-26.77-44.77-90.82-138.23-211.05-206.74
	c-116.8-66.55-226.45-75.27-278.53-76.09c58.75,13.47,161.12,28.04,279.96-2.87C552.27,288.71,667.84,98.7,692.79,55.31
	c9.63,30.11,18.61,63.56,35.17,99.06c18.6,39.87,30.61,76.49,49.53,105.52c8.52-31.4,27.97-79.71,51.69-128.5
	c19.3-39.69,41.44-70.68,60.3-93.32c6.69,83.17,21.82,185.29,54.56,298.63c35.09,121.49,80.52,221.66,122.03,298.63"/>
<path class="st0" d="M525.65,631.96c7.64-81.17,29.92-166.34,56.59-269.41c31.33-121.07,71.66-224.07,110.55-307.24"/>
</svg>
